<svg id="visual" viewBox="0 0 960 540" width="960" height="540" xmlns="http://www.w3.org/2000/svg" xmlns:xlink="http://www.w3.org/1999/xlink" version="1.1"><rect width="960" height="540" fill="#182025"></rect><g><g transform="translate(660 122)"><path d="M0 -12.8L11.1 -6.4L11.1 6.4L0 12.8L-11.1 6.4L-11.1 -6.4Z" fill="none" stroke="#1a2b34" stroke-width="2"></path></g><g transform="translate(652 327)"><path d="M0 -8L6.9 -4L6.9 4L0 8L-6.9 4L-6.9 -4Z" fill="none" stroke="#1a2b34" stroke-width="2"></path></g><g transform="translate(37 301)"><path d="M0 -3L2.6 -1.5L2.6 1.5L0 3L-2.6 1.5L-2.6 -1.5Z" fill="none" stroke="#1a2b34" stroke-width="2"></path></g><g transform="translate(606 355)"><path d="M0 -11L9.5 -5.5L9.5 5.5L0 11L-9.5 5.5L-9.5 -5.5Z" fill="none" stroke="#1a2b34" stroke-width="2"></path></g><g transform="translate(869 530)"><path d="M0 -3L2.6 -1.5L2.6 1.5L0 3L-2.6 1.5L-2.6 -1.5Z" fill="none" stroke="#1a2b34" stroke-width="2"></path></g><g transform="translate(202 207)"><path d="M0 -4L3.5 -2L3.5 2L0 4L-3.5 2L-3.5 -2Z" fill="none" stroke="#1a2b34" stroke-width="2"></path></g><g transform="translate(194 495)"><path d="M0 -7L6.1 -3.5L6.1 3.5L0 7L-6.1 3.5L-6.1 -3.5Z" fill="none" stroke="#1a2b34" stroke-width="2"></path></g><g transform="translate(535 69)"><path d="M0 -11L9.5 -5.5L9.5 5.5L0 11L-9.5 5.5L-9.5 -5.5Z" fill="none" stroke="#1a2b34" stroke-width="2"></path></g><g transform="translate(169 318)"><path d="M0 -5L4.3 -2.5L4.3 2.5L0 5L-4.3 2.5L-4.3 -2.5Z" fill="none" stroke="#1a2b34" stroke-width="2"></path></g><g transform="translate(501 295)"><path d="M0 -3L2.6 -1.5L2.6 1.5L0 3L-2.6 1.5L-2.6 -1.5Z" fill="none" stroke="#1a2b34" stroke-width="2"></path></g><g transform="translate(265 529)"><path d="M0 -4L3.5 -2L3.5 2L0 4L-3.5 2L-3.5 -2Z" fill="none" stroke="#1a2b34" stroke-width="2"></path></g><g transform="translate(384 187)"><path d="M0 -3L2.6 -1.5L2.6 1.5L0 3L-2.6 1.5L-2.6 -1.5Z" fill="none" stroke="#1a2b34" stroke-width="2"></path></g><g transform="translate(286 195)"><path d="M0 -10L8.7 -5L8.7 5L0 10L-8.7 5L-8.7 -5Z" fill="none" stroke="#1a2b34" stroke-width="2"></path></g><g transform="translate(717 270)"><path d="M0 -2L1.7 -1L1.7 1L0 2L-1.7 1L-1.7 -1Z" fill="none" stroke="#1a2b34" stroke-width="2"></path></g><g transform="translate(594 55)"><path d="M0 -4L3.5 -2L3.5 2L0 4L-3.5 2L-3.5 -2Z" fill="none" stroke="#1a2b34" stroke-width="2"></path></g><g transform="translate(958 507)"><path d="M0 -5L4.3 -2.5L4.3 2.5L0 5L-4.3 2.5L-4.3 -2.5Z" fill="none" stroke="#1a2b34" stroke-width="2"></path></g><g transform="translate(77 355)"><path d="M0 -6L5.2 -3L5.2 3L0 6L-5.2 3L-5.2 -3Z" fill="none" stroke="#1a2b34" stroke-width="2"></path></g><g transform="translate(353 11)"><path d="M0 -1L0.9 -0.5L0.9 0.5L0 1L-0.9 0.5L-0.9 -0.5Z" fill="none" stroke="#1a2b34" stroke-width="2"></path></g><g transform="translate(374 266)"><path d="M0 -4L3.5 -2L3.5 2L0 4L-3.5 2L-3.5 -2Z" fill="none" stroke="#1a2b34" stroke-width="2"></path></g><g transform="translate(588 262)"><path d="M0 -11L9.5 -5.5L9.5 5.5L0 11L-9.5 5.5L-9.5 -5.5Z" fill="none" stroke="#1a2b34" stroke-width="2"></path></g><g transform="translate(466 81)"><path d="M0 -8L6.9 -4L6.9 4L0 8L-6.9 4L-6.9 -4Z" fill="none" stroke="#1a2b34" stroke-width="2"></path></g><g transform="translate(39 182)"><path d="M0 -3L2.6 -1.5L2.6 1.5L0 3L-2.6 1.5L-2.6 -1.5Z" fill="none" stroke="#1a2b34" stroke-width="2"></path></g><g transform="translate(876 287)"><path d="M0 -8L6.9 -4L6.9 4L0 8L-6.9 4L-6.9 -4Z" fill="none" stroke="#1a2b34" stroke-width="2"></path></g><g transform="translate(469 513)"><path d="M0 -9L7.8 -4.5L7.8 4.5L0 9L-7.8 4.5L-7.8 -4.5Z" fill="none" stroke="#1a2b34" stroke-width="2"></path></g><g transform="translate(743 231)"><path d="M0 -1L0.9 -0.5L0.9 0.5L0 1L-0.9 0.5L-0.9 -0.5Z" fill="none" stroke="#1a2b34" stroke-width="2"></path></g><g transform="translate(279 135)"><path d="M0 -11L9.5 -5.5L9.5 5.5L0 11L-9.5 5.5L-9.5 -5.5Z" fill="none" stroke="#1a2b34" stroke-width="2"></path></g><g transform="translate(820 535)"><path d="M0 -2L1.7 -1L1.7 1L0 2L-1.7 1L-1.7 -1Z" fill="none" stroke="#1a2b34" stroke-width="2"></path></g><g transform="translate(620 464)"><path d="M0 -9L7.8 -4.5L7.8 4.5L0 9L-7.8 4.5L-7.8 -4.5Z" fill="none" stroke="#1a2b34" stroke-width="2"></path></g><g transform="translate(754 96)"><path d="M0 -10L8.7 -5L8.7 5L0 10L-8.7 5L-8.7 -5Z" fill="none" stroke="#1a2b34" stroke-width="2"></path></g><g transform="translate(454 428)"><path d="M0 -11L9.5 -5.5L9.5 5.5L0 11L-9.5 5.5L-9.5 -5.5Z" fill="none" stroke="#1a2b34" stroke-width="2"></path></g><g transform="translate(394 238)"><path d="M0 -6L5.2 -3L5.2 3L0 6L-5.2 3L-5.2 -3Z" fill="none" stroke="#1a2b34" stroke-width="2"></path></g><g transform="translate(66 469)"><path d="M0 -2L1.7 -1L1.7 1L0 2L-1.7 1L-1.7 -1Z" fill="none" stroke="#1a2b34" stroke-width="2"></path></g><g transform="translate(275 233)"><path d="M0 -2L1.7 -1L1.7 1L0 2L-1.7 1L-1.7 -1Z" fill="none" stroke="#1a2b34" stroke-width="2"></path></g><g transform="translate(551 429)"><path d="M0 -10L8.7 -5L8.7 5L0 10L-8.7 5L-8.7 -5Z" fill="none" stroke="#1a2b34" stroke-width="2"></path></g><g transform="translate(440 498)"><path d="M0 -10L8.7 -5L8.7 5L0 10L-8.7 5L-8.7 -5Z" fill="none" stroke="#1a2b34" stroke-width="2"></path></g><g transform="translate(399 154)"><path d="M0 -3L2.6 -1.5L2.6 1.5L0 3L-2.6 1.5L-2.6 -1.5Z" fill="none" stroke="#1a2b34" stroke-width="2"></path></g><g transform="translate(519 330)"><path d="M0 -7L6.1 -3.5L6.1 3.5L0 7L-6.1 3.5L-6.1 -3.5Z" fill="none" stroke="#1a2b34" stroke-width="2"></path></g><g transform="translate(467 173)"><path d="M0 -11L9.5 -5.5L9.5 5.5L0 11L-9.5 5.5L-9.5 -5.5Z" fill="none" stroke="#1a2b34" stroke-width="2"></path></g><g transform="translate(162 521)"><path d="M0 -9L7.8 -4.5L7.8 4.5L0 9L-7.8 4.5L-7.8 -4.5Z" fill="none" stroke="#1a2b34" stroke-width="2"></path></g><g transform="translate(261 176)"><path d="M0 -4L3.5 -2L3.5 2L0 4L-3.5 2L-3.5 -2Z" fill="none" stroke="#1a2b34" stroke-width="2"></path></g><g transform="translate(372 319)"><path d="M0 -11L9.5 -5.5L9.5 5.5L0 11L-9.5 5.5L-9.5 -5.5Z" fill="none" stroke="#1a2b34" stroke-width="2"></path></g><g transform="translate(454 379)"><path d="M0 -10L8.7 -5L8.7 5L0 10L-8.7 5L-8.7 -5Z" fill="none" stroke="#1a2b34" stroke-width="2"></path></g><g transform="translate(317 465)"><path d="M0 -11L9.5 -5.5L9.5 5.5L0 11L-9.5 5.5L-9.5 -5.5Z" fill="none" stroke="#1a2b34" stroke-width="2"></path></g><g transform="translate(852 201)"><path d="M0 -1L0.9 -0.5L0.9 0.5L0 1L-0.9 0.5L-0.9 -0.5Z" fill="none" stroke="#1a2b34" stroke-width="2"></path></g><g transform="translate(849 150)"><path d="M0 -11L9.5 -5.5L9.5 5.5L0 11L-9.5 5.5L-9.5 -5.5Z" fill="none" stroke="#1a2b34" stroke-width="2"></path></g><g transform="translate(598 209)"><path d="M0 -5L4.3 -2.5L4.3 2.5L0 5L-4.3 2.5L-4.3 -2.5Z" fill="none" stroke="#1a2b34" stroke-width="2"></path></g><g transform="translate(824 399)"><path d="M0 -6L5.2 -3L5.2 3L0 6L-5.2 3L-5.2 -3Z" fill="none" stroke="#1a2b34" stroke-width="2"></path></g><g transform="translate(142 389)"><path d="M0 -5L4.3 -2.5L4.3 2.5L0 5L-4.3 2.5L-4.3 -2.5Z" fill="none" stroke="#1a2b34" stroke-width="2"></path></g><g transform="translate(739 526)"><path d="M0 -6L5.2 -3L5.2 3L0 6L-5.2 3L-5.2 -3Z" fill="none" stroke="#1a2b34" stroke-width="2"></path></g><g transform="translate(920 223)"><path d="M0 -4L3.5 -2L3.5 2L0 4L-3.5 2L-3.5 -2Z" fill="none" stroke="#1a2b34" stroke-width="2"></path></g><g transform="translate(453 272)"><path d="M0 -2L1.7 -1L1.7 1L0 2L-1.7 1L-1.7 -1Z" fill="none" stroke="#1a2b34" stroke-width="2"></path></g><g transform="translate(83 247)"><path d="M0 -9L7.8 -4.5L7.8 4.5L0 9L-7.8 4.5L-7.8 -4.5Z" fill="none" stroke="#1a2b34" stroke-width="2"></path></g><g transform="translate(84 498)"><path d="M0 -6L5.2 -3L5.2 3L0 6L-5.2 3L-5.2 -3Z" fill="none" stroke="#1a2b34" stroke-width="2"></path></g><g transform="translate(291 432)"><path d="M0 -10L8.7 -5L8.7 5L0 10L-8.7 5L-8.7 -5Z" fill="none" stroke="#1a2b34" stroke-width="2"></path></g><g transform="translate(727 98)"><path d="M0 -4L3.5 -2L3.5 2L0 4L-3.5 2L-3.5 -2Z" fill="none" stroke="#1a2b34" stroke-width="2"></path></g><g transform="translate(149 420)"><path d="M0 -10L8.7 -5L8.7 5L0 10L-8.7 5L-8.7 -5Z" fill="none" stroke="#1a2b34" stroke-width="2"></path></g><g transform="translate(952 296)"><path d="M0 -9L7.8 -4.5L7.8 4.5L0 9L-7.8 4.5L-7.8 -4.5Z" fill="none" stroke="#1a2b34" stroke-width="2"></path></g><g transform="translate(917 190)"><path d="M0 -1L0.9 -0.5L0.9 0.5L0 1L-0.9 0.5L-0.9 -0.5Z" fill="none" stroke="#1a2b34" stroke-width="2"></path></g><g transform="translate(791 372)"><path d="M0 -5L4.3 -2.5L4.3 2.5L0 5L-4.3 2.5L-4.3 -2.5Z" fill="none" stroke="#1a2b34" stroke-width="2"></path></g><g transform="translate(805 90)"><path d="M0 -4L3.5 -2L3.5 2L0 4L-3.5 2L-3.5 -2Z" fill="none" stroke="#1a2b34" stroke-width="2"></path></g><g transform="translate(762 29)"><path d="M0 -3L2.6 -1.5L2.6 1.5L0 3L-2.6 1.5L-2.6 -1.5Z" fill="none" stroke="#1a2b34" stroke-width="2"></path></g><g transform="translate(474 38)"><path d="M0 -11L9.5 -5.5L9.5 5.5L0 11L-9.5 5.5L-9.5 -5.5Z" fill="none" stroke="#1a2b34" stroke-width="2"></path></g><g transform="translate(714 52)"><path d="M0 -5L4.3 -2.5L4.3 2.5L0 5L-4.3 2.5L-4.3 -2.5Z" fill="none" stroke="#1a2b34" stroke-width="2"></path></g><g transform="translate(113 470)"><path d="M0 -5L4.3 -2.5L4.3 2.5L0 5L-4.3 2.5L-4.3 -2.5Z" fill="none" stroke="#1a2b34" stroke-width="2"></path></g><g transform="translate(645 51)"><path d="M0 -9L7.8 -4.5L7.8 4.5L0 9L-7.8 4.5L-7.8 -4.5Z" fill="none" stroke="#1a2b34" stroke-width="2"></path></g><g transform="translate(740 448)"><path d="M0 -4L3.5 -2L3.5 2L0 4L-3.5 2L-3.5 -2Z" fill="none" stroke="#1a2b34" stroke-width="2"></path></g><g transform="translate(696 250)"><path d="M0 -11L9.5 -5.5L9.5 5.5L0 11L-9.5 5.5L-9.5 -5.5Z" fill="none" stroke="#1a2b34" stroke-width="2"></path></g><g transform="translate(767 296)"><path d="M0 -2L1.7 -1L1.7 1L0 2L-1.7 1L-1.7 -1Z" fill="none" stroke="#1a2b34" stroke-width="2"></path></g><g transform="translate(131 275)"><path d="M0 -6L5.2 -3L5.2 3L0 6L-5.2 3L-5.2 -3Z" fill="none" stroke="#1a2b34" stroke-width="2"></path></g><g transform="translate(650 295)"><path d="M0 -7L6.1 -3.5L6.1 3.5L0 7L-6.1 3.5L-6.1 -3.5Z" fill="none" stroke="#1a2b34" stroke-width="2"></path></g><g transform="translate(784 446)"><path d="M0 -1L0.9 -0.5L0.9 0.5L0 1L-0.9 0.5L-0.9 -0.5Z" fill="none" stroke="#1a2b34" stroke-width="2"></path></g><g transform="translate(746 177)"><path d="M0 -11L9.5 -5.5L9.5 5.5L0 11L-9.5 5.5L-9.5 -5.5Z" fill="none" stroke="#1a2b34" stroke-width="2"></path></g><g transform="translate(30 38)"><path d="M0 -8L6.9 -4L6.9 4L0 8L-6.9 4L-6.9 -4Z" fill="none" stroke="#1a2b34" stroke-width="2"></path></g><g transform="translate(391 521)"><path d="M0 -11L9.5 -5.5L9.5 5.5L0 11L-9.5 5.5L-9.5 -5.5Z" fill="none" stroke="#1a2b34" stroke-width="2"></path></g><g transform="translate(186 281)"><path d="M0 -2L1.7 -1L1.7 1L0 2L-1.7 1L-1.7 -1Z" fill="none" stroke="#1a2b34" stroke-width="2"></path></g><g transform="translate(581 404)"><path d="M0 -7L6.1 -3.5L6.1 3.5L0 7L-6.1 3.5L-6.1 -3.5Z" fill="none" stroke="#1a2b34" stroke-width="2"></path></g><g transform="translate(942 162)"><path d="M0 -11L9.5 -5.5L9.5 5.5L0 11L-9.5 5.5L-9.5 -5.5Z" fill="none" stroke="#1a2b34" stroke-width="2"></path></g><g transform="translate(412 69)"><path d="M0 -9L7.8 -4.5L7.8 4.5L0 9L-7.8 4.5L-7.8 -4.5Z" fill="none" stroke="#1a2b34" stroke-width="2"></path></g><g transform="translate(810 506)"><path d="M0 -10L8.7 -5L8.7 5L0 10L-8.7 5L-8.7 -5Z" fill="none" stroke="#1a2b34" stroke-width="2"></path></g><g transform="translate(862 465)"><path d="M0 -2L1.7 -1L1.7 1L0 2L-1.7 1L-1.7 -1Z" fill="none" stroke="#1a2b34" stroke-width="2"></path></g><g transform="translate(718 155)"><path d="M0 -8L6.9 -4L6.9 4L0 8L-6.9 4L-6.9 -4Z" fill="none" stroke="#1a2b34" stroke-width="2"></path></g><g transform="translate(343 469)"><path d="M0 -8L6.9 -4L6.9 4L0 8L-6.9 4L-6.9 -4Z" fill="none" stroke="#1a2b34" stroke-width="2"></path></g><g transform="translate(216 48)"><path d="M0 -9L7.8 -4.5L7.8 4.5L0 9L-7.8 4.5L-7.8 -4.5Z" fill="none" stroke="#1a2b34" stroke-width="2"></path></g><g transform="translate(136 191)"><path d="M0 -7L6.1 -3.5L6.1 3.5L0 7L-6.1 3.5L-6.1 -3.5Z" fill="none" stroke="#1a2b34" stroke-width="2"></path></g><g transform="translate(177 347)"><path d="M0 -11L9.5 -5.5L9.5 5.5L0 11L-9.5 5.5L-9.5 -5.5Z" fill="none" stroke="#1a2b34" stroke-width="2"></path></g><g transform="translate(558 341)"><path d="M0 -3L2.6 -1.5L2.6 1.5L0 3L-2.6 1.5L-2.6 -1.5Z" fill="none" stroke="#1a2b34" stroke-width="2"></path></g><g transform="translate(767 121)"><path d="M0 -11L9.5 -5.5L9.5 5.5L0 11L-9.5 5.5L-9.5 -5.5Z" fill="none" stroke="#1a2b34" stroke-width="2"></path></g><g transform="translate(42 456)"><path d="M0 -4L3.5 -2L3.5 2L0 4L-3.5 2L-3.5 -2Z" fill="none" stroke="#1a2b34" stroke-width="2"></path></g><g transform="translate(871 420)"><path d="M0 -8L6.9 -4L6.9 4L0 8L-6.9 4L-6.9 -4Z" fill="none" stroke="#1a2b34" stroke-width="2"></path></g><g transform="translate(836 470)"><path d="M0 -8L6.9 -4L6.9 4L0 8L-6.9 4L-6.9 -4Z" fill="none" stroke="#1a2b34" stroke-width="2"></path></g><g transform="translate(633 213)"><path d="M0 -10L8.7 -5L8.7 5L0 10L-8.7 5L-8.7 -5Z" fill="none" stroke="#1a2b34" stroke-width="2"></path></g><g transform="translate(494 472)"><path d="M0 -5L4.3 -2.5L4.3 2.5L0 5L-4.3 2.5L-4.3 -2.5Z" fill="none" stroke="#1a2b34" stroke-width="2"></path></g><g transform="translate(691 537)"><path d="M0 -8L6.9 -4L6.9 4L0 8L-6.9 4L-6.9 -4Z" fill="none" stroke="#1a2b34" stroke-width="2"></path></g><g transform="translate(139 76)"><path d="M0 -5L4.3 -2.5L4.3 2.5L0 5L-4.3 2.5L-4.3 -2.5Z" fill="none" stroke="#1a2b34" stroke-width="2"></path></g><g transform="translate(130 142)"><path d="M0 -2L1.7 -1L1.7 1L0 2L-1.7 1L-1.7 -1Z" fill="none" stroke="#1a2b34" stroke-width="2"></path></g><g transform="translate(335 217)"><path d="M0 -5L4.3 -2.5L4.3 2.5L0 5L-4.3 2.5L-4.3 -2.5Z" fill="none" stroke="#1a2b34" stroke-width="2"></path></g><g transform="translate(649 528)"><path d="M0 -1L0.9 -0.5L0.9 0.5L0 1L-0.9 0.5L-0.9 -0.5Z" fill="none" stroke="#1a2b34" stroke-width="2"></path></g><g transform="translate(40 525)"><path d="M0 -3L2.6 -1.5L2.6 1.5L0 3L-2.6 1.5L-2.6 -1.5Z" fill="none" stroke="#1a2b34" stroke-width="2"></path></g><g transform="translate(199 237)"><path d="M0 -5L4.3 -2.5L4.3 2.5L0 5L-4.3 2.5L-4.3 -2.5Z" fill="none" stroke="#1a2b34" stroke-width="2"></path></g><g transform="translate(261 34)"><path d="M0 -6L5.2 -3L5.2 3L0 6L-5.2 3L-5.2 -3Z" fill="none" stroke="#1a2b34" stroke-width="2"></path></g><g transform="translate(205 162)"><path d="M0 -6L5.2 -3L5.2 3L0 6L-5.2 3L-5.2 -3Z" fill="none" stroke="#1a2b34" stroke-width="2"></path></g><g transform="translate(490 531)"><path d="M0 -5L4.3 -2.5L4.3 2.5L0 5L-4.3 2.5L-4.3 -2.5Z" fill="none" stroke="#1a2b34" stroke-width="2"></path></g><g transform="translate(332 404)"><path d="M0 -7L6.1 -3.5L6.1 3.5L0 7L-6.1 3.5L-6.1 -3.5Z" fill="none" stroke="#1a2b34" stroke-width="2"></path></g><g transform="translate(347 433)"><path d="M0 -3L2.6 -1.5L2.6 1.5L0 3L-2.6 1.5L-2.6 -1.5Z" fill="none" stroke="#1a2b34" stroke-width="2"></path></g><g transform="translate(956 124)"><path d="M0 -5L4.3 -2.5L4.3 2.5L0 5L-4.3 2.5L-4.3 -2.5Z" fill="none" stroke="#1a2b34" stroke-width="2"></path></g><g transform="translate(219 96)"><path d="M0 -2L1.7 -1L1.7 1L0 2L-1.7 1L-1.7 -1Z" fill="none" stroke="#1a2b34" stroke-width="2"></path></g><g transform="translate(922 87)"><path d="M0 -11L9.5 -5.5L9.5 5.5L0 11L-9.5 5.5L-9.5 -5.5Z" fill="none" stroke="#1a2b34" stroke-width="2"></path></g><g transform="translate(152 224)"><path d="M0 -3L2.6 -1.5L2.6 1.5L0 3L-2.6 1.5L-2.6 -1.5Z" fill="none" stroke="#1a2b34" stroke-width="2"></path></g><g transform="translate(665 479)"><path d="M0 -3L2.6 -1.5L2.6 1.5L0 3L-2.6 1.5L-2.6 -1.5Z" fill="none" stroke="#1a2b34" stroke-width="2"></path></g><g transform="translate(613 327)"><path d="M0 -10L8.7 -5L8.7 5L0 10L-8.7 5L-8.7 -5Z" fill="none" stroke="#1a2b34" stroke-width="2"></path></g><g transform="translate(737 293)"><path d="M0 -10L8.7 -5L8.7 5L0 10L-8.7 5L-8.7 -5Z" fill="none" stroke="#1a2b34" stroke-width="2"></path></g><g transform="translate(323 333)"><path d="M0 -5L4.3 -2.5L4.3 2.5L0 5L-4.3 2.5L-4.3 -2.5Z" fill="none" stroke="#1a2b34" stroke-width="2"></path></g><g transform="translate(73 40)"><path d="M0 -8L6.9 -4L6.9 4L0 8L-6.9 4L-6.9 -4Z" fill="none" stroke="#1a2b34" stroke-width="2"></path></g><g transform="translate(917 329)"><path d="M0 -11L9.5 -5.5L9.5 5.5L0 11L-9.5 5.5L-9.5 -5.5Z" fill="none" stroke="#1a2b34" stroke-width="2"></path></g><g transform="translate(512 378)"><path d="M0 -1L0.9 -0.5L0.9 0.5L0 1L-0.9 0.5L-0.9 -0.5Z" fill="none" stroke="#1a2b34" stroke-width="2"></path></g><g transform="translate(57 225)"><path d="M0 -2L1.7 -1L1.7 1L0 2L-1.7 1L-1.7 -1Z" fill="none" stroke="#1a2b34" stroke-width="2"></path></g><g transform="translate(532 497)"><path d="M0 -1L0.9 -0.5L0.9 0.5L0 1L-0.9 0.5L-0.9 -0.5Z" fill="none" stroke="#1a2b34" stroke-width="2"></path></g><g transform="translate(209 304)"><path d="M0 -6L5.2 -3L5.2 3L0 6L-5.2 3L-5.2 -3Z" fill="none" stroke="#1a2b34" stroke-width="2"></path></g><g transform="translate(591 471)"><path d="M0 -1L0.9 -0.5L0.9 0.5L0 1L-0.9 0.5L-0.9 -0.5Z" fill="none" stroke="#1a2b34" stroke-width="2"></path></g><g transform="translate(688 422)"><path d="M0 -1L0.9 -0.5L0.9 0.5L0 1L-0.9 0.5L-0.9 -0.5Z" fill="none" stroke="#1a2b34" stroke-width="2"></path></g><g transform="translate(565 280)"><path d="M0 -9L7.8 -4.5L7.8 4.5L0 9L-7.8 4.5L-7.8 -4.5Z" fill="none" stroke="#1a2b34" stroke-width="2"></path></g><g transform="translate(800 47)"><path d="M0 -2L1.7 -1L1.7 1L0 2L-1.7 1L-1.7 -1Z" fill="none" stroke="#1a2b34" stroke-width="2"></path></g><g transform="translate(56 107)"><path d="M0 -3L2.6 -1.5L2.6 1.5L0 3L-2.6 1.5L-2.6 -1.5Z" fill="none" stroke="#1a2b34" stroke-width="2"></path></g><g transform="translate(430 332)"><path d="M0 -8L6.9 -4L6.9 4L0 8L-6.9 4L-6.9 -4Z" fill="none" stroke="#1a2b34" stroke-width="2"></path></g><g transform="translate(763 478)"><path d="M0 -1L0.9 -0.5L0.9 0.5L0 1L-0.9 0.5L-0.9 -0.5Z" fill="none" stroke="#1a2b34" stroke-width="2"></path></g><g transform="translate(853 261)"><path d="M0 -11L9.5 -5.5L9.5 5.5L0 11L-9.5 5.5L-9.5 -5.5Z" fill="none" stroke="#1a2b34" stroke-width="2"></path></g><g transform="translate(271 321)"><path d="M0 -2L1.7 -1L1.7 1L0 2L-1.7 1L-1.7 -1Z" fill="none" stroke="#1a2b34" stroke-width="2"></path></g><g transform="translate(568 101)"><path d="M0 -11L9.5 -5.5L9.5 5.5L0 11L-9.5 5.5L-9.5 -5.5Z" fill="none" stroke="#1a2b34" stroke-width="2"></path></g><g transform="translate(887 93)"><path d="M0 -3L2.6 -1.5L2.6 1.5L0 3L-2.6 1.5L-2.6 -1.5Z" fill="none" stroke="#1a2b34" stroke-width="2"></path></g><g transform="translate(541 98)"><path d="M0 -8L6.9 -4L6.9 4L0 8L-6.9 4L-6.9 -4Z" fill="none" stroke="#1a2b34" stroke-width="2"></path></g><g transform="translate(190 527)"><path d="M0 -11L9.5 -5.5L9.5 5.5L0 11L-9.5 5.5L-9.5 -5.5Z" fill="none" stroke="#1a2b34" stroke-width="2"></path></g><g transform="translate(312 5)"><path d="M0 -8L6.9 -4L6.9 4L0 8L-6.9 4L-6.9 -4Z" fill="none" stroke="#1a2b34" stroke-width="2"></path></g><g transform="translate(519 272)"><path d="M0 -1L0.9 -0.5L0.9 0.5L0 1L-0.9 0.5L-0.9 -0.5Z" fill="none" stroke="#1a2b34" stroke-width="2"></path></g><g transform="translate(796 162)"><path d="M0 -4L3.5 -2L3.5 2L0 4L-3.5 2L-3.5 -2Z" fill="none" stroke="#1a2b34" stroke-width="2"></path></g><g transform="translate(229 493)"><path d="M0 -11L9.5 -5.5L9.5 5.5L0 11L-9.5 5.5L-9.5 -5.5Z" fill="none" stroke="#1a2b34" stroke-width="2"></path></g><g transform="translate(881 368)"><path d="M0 -1L0.9 -0.5L0.9 0.5L0 1L-0.9 0.5L-0.9 -0.5Z" fill="none" stroke="#1a2b34" stroke-width="2"></path></g><g transform="translate(433 161)"><path d="M0 -4L3.5 -2L3.5 2L0 4L-3.5 2L-3.5 -2Z" fill="none" stroke="#1a2b34" stroke-width="2"></path></g><g transform="translate(274 290)"><path d="M0 -5L4.3 -2.5L4.3 2.5L0 5L-4.3 2.5L-4.3 -2.5Z" fill="none" stroke="#1a2b34" stroke-width="2"></path></g><g transform="translate(76 167)"><path d="M0 -10L8.7 -5L8.7 5L0 10L-8.7 5L-8.7 -5Z" fill="none" stroke="#1a2b34" stroke-width="2"></path></g><g transform="translate(535 353)"><path d="M0 -4L3.5 -2L3.5 2L0 4L-3.5 2L-3.5 -2Z" fill="none" stroke="#1a2b34" stroke-width="2"></path></g><g transform="translate(924 526)"><path d="M0 -10L8.7 -5L8.7 5L0 10L-8.7 5L-8.7 -5Z" fill="none" stroke="#1a2b34" stroke-width="2"></path></g><g transform="translate(957 366)"><path d="M0 -7L6.1 -3.5L6.1 3.5L0 7L-6.1 3.5L-6.1 -3.5Z" fill="none" stroke="#1a2b34" stroke-width="2"></path></g><g transform="translate(842 340)"><path d="M0 -6L5.2 -3L5.2 3L0 6L-5.2 3L-5.2 -3Z" fill="none" stroke="#1a2b34" stroke-width="2"></path></g><g transform="translate(570 310)"><path d="M0 -3L2.6 -1.5L2.6 1.5L0 3L-2.6 1.5L-2.6 -1.5Z" fill="none" stroke="#1a2b34" stroke-width="2"></path></g><g transform="translate(398 346)"><path d="M0 -1L0.9 -0.5L0.9 0.5L0 1L-0.9 0.5L-0.9 -0.5Z" fill="none" stroke="#1a2b34" stroke-width="2"></path></g><g transform="translate(392 14)"><path d="M0 -11L9.5 -5.5L9.5 5.5L0 11L-9.5 5.5L-9.5 -5.5Z" fill="none" stroke="#1a2b34" stroke-width="2"></path></g><g transform="translate(793 419)"><path d="M0 -9L7.8 -4.5L7.8 4.5L0 9L-7.8 4.5L-7.8 -4.5Z" fill="none" stroke="#1a2b34" stroke-width="2"></path></g><g transform="translate(120 345)"><path d="M0 -2L1.7 -1L1.7 1L0 2L-1.7 1L-1.7 -1Z" fill="none" stroke="#1a2b34" stroke-width="2"></path></g><g transform="translate(486 235)"><path d="M0 -5L4.3 -2.5L4.3 2.5L0 5L-4.3 2.5L-4.3 -2.5Z" fill="none" stroke="#1a2b34" stroke-width="2"></path></g><g transform="translate(118 306)"><path d="M0 -7L6.1 -3.5L6.1 3.5L0 7L-6.1 3.5L-6.1 -3.5Z" fill="none" stroke="#1a2b34" stroke-width="2"></path></g><g transform="translate(83 527)"><path d="M0 -9L7.8 -4.5L7.8 4.5L0 9L-7.8 4.5L-7.8 -4.5Z" fill="none" stroke="#1a2b34" stroke-width="2"></path></g><g transform="translate(521 450)"><path d="M0 -7L6.1 -3.5L6.1 3.5L0 7L-6.1 3.5L-6.1 -3.5Z" fill="none" stroke="#1a2b34" stroke-width="2"></path></g><g transform="translate(309 139)"><path d="M0 -6L5.2 -3L5.2 3L0 6L-5.2 3L-5.2 -3Z" fill="none" stroke="#1a2b34" stroke-width="2"></path></g><g transform="translate(831 111)"><path d="M0 -7L6.1 -3.5L6.1 3.5L0 7L-6.1 3.5L-6.1 -3.5Z" fill="none" stroke="#1a2b34" stroke-width="2"></path></g><g transform="translate(609 133)"><path d="M0 -11L9.5 -5.5L9.5 5.5L0 11L-9.5 5.5L-9.5 -5.5Z" fill="none" stroke="#1a2b34" stroke-width="2"></path></g><g transform="translate(226 183)"><path d="M0 -9L7.8 -4.5L7.8 4.5L0 9L-7.8 4.5L-7.8 -4.5Z" fill="none" stroke="#1a2b34" stroke-width="2"></path></g><g transform="translate(338 188)"><path d="M0 -10L8.7 -5L8.7 5L0 10L-8.7 5L-8.7 -5Z" fill="none" stroke="#1a2b34" stroke-width="2"></path></g><g transform="translate(438 58)"><path d="M0 -4L3.5 -2L3.5 2L0 4L-3.5 2L-3.5 -2Z" fill="none" stroke="#1a2b34" stroke-width="2"></path></g><g transform="translate(421 479)"><path d="M0 -4L3.5 -2L3.5 2L0 4L-3.5 2L-3.5 -2Z" fill="none" stroke="#1a2b34" stroke-width="2"></path></g><g transform="translate(201 415)"><path d="M0 -3L2.6 -1.5L2.6 1.5L0 3L-2.6 1.5L-2.6 -1.5Z" fill="none" stroke="#1a2b34" stroke-width="2"></path></g><g transform="translate(650 356)"><path d="M0 -8L6.9 -4L6.9 4L0 8L-6.9 4L-6.9 -4Z" fill="none" stroke="#1a2b34" stroke-width="2"></path></g><g transform="translate(456 351)"><path d="M0 -8L6.9 -4L6.9 4L0 8L-6.9 4L-6.9 -4Z" fill="none" stroke="#1a2b34" stroke-width="2"></path></g><g transform="translate(344 514)"><path d="M0 -9L7.8 -4.5L7.8 4.5L0 9L-7.8 4.5L-7.8 -4.5Z" fill="none" stroke="#1a2b34" stroke-width="2"></path></g><g transform="translate(871 322)"><path d="M0 -4L3.5 -2L3.5 2L0 4L-3.5 2L-3.5 -2Z" fill="none" stroke="#1a2b34" stroke-width="2"></path></g><g transform="translate(319 374)"><path d="M0 -9L7.8 -4.5L7.8 4.5L0 9L-7.8 4.5L-7.8 -4.5Z" fill="none" stroke="#1a2b34" stroke-width="2"></path></g><g transform="translate(563 11)"><path d="M0 -3L2.6 -1.5L2.6 1.5L0 3L-2.6 1.5L-2.6 -1.5Z" fill="none" stroke="#1a2b34" stroke-width="2"></path></g><g transform="translate(854 506)"><path d="M0 -3L2.6 -1.5L2.6 1.5L0 3L-2.6 1.5L-2.6 -1.5Z" fill="none" stroke="#1a2b34" stroke-width="2"></path></g><g transform="translate(223 16)"><path d="M0 -8L6.9 -4L6.9 4L0 8L-6.9 4L-6.9 -4Z" fill="none" stroke="#1a2b34" stroke-width="2"></path></g><g transform="translate(799 310)"><path d="M0 -5L4.3 -2.5L4.3 2.5L0 5L-4.3 2.5L-4.3 -2.5Z" fill="none" stroke="#1a2b34" stroke-width="2"></path></g><g transform="translate(551 137)"><path d="M0 -6L5.2 -3L5.2 3L0 6L-5.2 3L-5.2 -3Z" fill="none" stroke="#1a2b34" stroke-width="2"></path></g><g transform="translate(493 99)"><path d="M0 -10L8.7 -5L8.7 5L0 10L-8.7 5L-8.7 -5Z" fill="none" stroke="#1a2b34" stroke-width="2"></path></g><g transform="translate(759 404)"><path d="M0 -7L6.1 -3.5L6.1 3.5L0 7L-6.1 3.5L-6.1 -3.5Z" fill="none" stroke="#1a2b34" stroke-width="2"></path></g><g transform="translate(569 367)"><path d="M0 -11L9.5 -5.5L9.5 5.5L0 11L-9.5 5.5L-9.5 -5.5Z" fill="none" stroke="#1a2b34" stroke-width="2"></path></g><g transform="translate(413 35)"><path d="M0 -1L0.9 -0.5L0.9 0.5L0 1L-0.9 0.5L-0.9 -0.5Z" fill="none" stroke="#1a2b34" stroke-width="2"></path></g><g transform="translate(465 114)"><path d="M0 -1L0.9 -0.5L0.9 0.5L0 1L-0.9 0.5L-0.9 -0.5Z" fill="none" stroke="#1a2b34" stroke-width="2"></path></g><g transform="translate(295 100)"><path d="M0 -8L6.9 -4L6.9 4L0 8L-6.9 4L-6.9 -4Z" fill="none" stroke="#1a2b34" stroke-width="2"></path></g><g transform="translate(407 204)"><path d="M0 -11L9.5 -5.5L9.5 5.5L0 11L-9.5 5.5L-9.5 -5.5Z" fill="none" stroke="#1a2b34" stroke-width="2"></path></g><g transform="translate(610 161)"><path d="M0 -3L2.6 -1.5L2.6 1.5L0 3L-2.6 1.5L-2.6 -1.5Z" fill="none" stroke="#1a2b34" stroke-width="2"></path></g><g transform="translate(871 44)"><path d="M0 -6L5.2 -3L5.2 3L0 6L-5.2 3L-5.2 -3Z" fill="none" stroke="#1a2b34" stroke-width="2"></path></g><g transform="translate(63 312)"><path d="M0 -3L2.6 -1.5L2.6 1.5L0 3L-2.6 1.5L-2.6 -1.5Z" fill="none" stroke="#1a2b34" stroke-width="2"></path></g><g transform="translate(612 28)"><path d="M0 -7L6.1 -3.5L6.1 3.5L0 7L-6.1 3.5L-6.1 -3.5Z" fill="none" stroke="#1a2b34" stroke-width="2"></path></g><g transform="translate(459 210)"><path d="M0 -2L1.7 -1L1.7 1L0 2L-1.7 1L-1.7 -1Z" fill="none" stroke="#1a2b34" stroke-width="2"></path></g><g transform="translate(102 154)"><path d="M0 -8L6.9 -4L6.9 4L0 8L-6.9 4L-6.9 -4Z" fill="none" stroke="#1a2b34" stroke-width="2"></path></g><g transform="translate(662 175)"><path d="M0 -1L0.9 -0.5L0.9 0.5L0 1L-0.9 0.5L-0.9 -0.5Z" fill="none" stroke="#1a2b34" stroke-width="2"></path></g><g transform="translate(771 69)"><path d="M0 -8L6.9 -4L6.9 4L0 8L-6.9 4L-6.9 -4Z" fill="none" stroke="#1a2b34" stroke-width="2"></path></g><g transform="translate(638 102)"><path d="M0 -11L9.5 -5.5L9.5 5.5L0 11L-9.5 5.5L-9.5 -5.5Z" fill="none" stroke="#1a2b34" stroke-width="2"></path></g><g transform="translate(157 1)"><path d="M0 -4L3.5 -2L3.5 2L0 4L-3.5 2L-3.5 -2Z" fill="none" stroke="#1a2b34" stroke-width="2"></path></g><g transform="translate(299 515)"><path d="M0 -8L6.9 -4L6.9 4L0 8L-6.9 4L-6.9 -4Z" fill="none" stroke="#1a2b34" stroke-width="2"></path></g><g transform="translate(60 428)"><path d="M0 -11L9.5 -5.5L9.5 5.5L0 11L-9.5 5.5L-9.5 -5.5Z" fill="none" stroke="#1a2b34" stroke-width="2"></path></g><g transform="translate(701 22)"><path d="M0 -9L7.8 -4.5L7.8 4.5L0 9L-7.8 4.5L-7.8 -4.5Z" fill="none" stroke="#1a2b34" stroke-width="2"></path></g><g transform="translate(510 425)"><path d="M0 -4L3.5 -2L3.5 2L0 4L-3.5 2L-3.5 -2Z" fill="none" stroke="#1a2b34" stroke-width="2"></path></g><g transform="translate(48 256)"><path d="M0 -8L6.9 -4L6.9 4L0 8L-6.9 4L-6.9 -4Z" fill="none" stroke="#1a2b34" stroke-width="2"></path></g><g transform="translate(256 118)"><path d="M0 -1L0.9 -0.5L0.9 0.5L0 1L-0.9 0.5L-0.9 -0.5Z" fill="none" stroke="#1a2b34" stroke-width="2"></path></g><g transform="translate(791 13)"><path d="M0 -9L7.8 -4.5L7.8 4.5L0 9L-7.8 4.5L-7.8 -4.5Z" fill="none" stroke="#1a2b34" stroke-width="2"></path></g><g transform="translate(592 445)"><path d="M0 -9L7.8 -4.5L7.8 4.5L0 9L-7.8 4.5L-7.8 -4.5Z" fill="none" stroke="#1a2b34" stroke-width="2"></path></g><g transform="translate(848 75)"><path d="M0 -10L8.7 -5L8.7 5L0 10L-8.7 5L-8.7 -5Z" fill="none" stroke="#1a2b34" stroke-width="2"></path></g><g transform="translate(347 273)"><path d="M0 -8L6.9 -4L6.9 4L0 8L-6.9 4L-6.9 -4Z" fill="none" stroke="#1a2b34" stroke-width="2"></path></g><g transform="translate(629 428)"><path d="M0 -9L7.8 -4.5L7.8 4.5L0 9L-7.8 4.5L-7.8 -4.5Z" fill="none" stroke="#1a2b34" stroke-width="2"></path></g><g transform="translate(168 93)"><path d="M0 -4L3.5 -2L3.5 2L0 4L-3.5 2L-3.5 -2Z" fill="none" stroke="#1a2b34" stroke-width="2"></path></g><g transform="translate(248 286)"><path d="M0 -10L8.7 -5L8.7 5L0 10L-8.7 5L-8.7 -5Z" fill="none" stroke="#1a2b34" stroke-width="2"></path></g><g transform="translate(709 198)"><path d="M0 -10L8.7 -5L8.7 5L0 10L-8.7 5L-8.7 -5Z" fill="none" stroke="#1a2b34" stroke-width="2"></path></g><g transform="translate(927 499)"><path d="M0 -1L0.9 -0.5L0.9 0.5L0 1L-0.9 0.5L-0.9 -0.5Z" fill="none" stroke="#1a2b34" stroke-width="2"></path></g><g transform="translate(726 388)"><path d="M0 -2L1.7 -1L1.7 1L0 2L-1.7 1L-1.7 -1Z" fill="none" stroke="#1a2b34" stroke-width="2"></path></g><g transform="translate(553 175)"><path d="M0 -3L2.6 -1.5L2.6 1.5L0 3L-2.6 1.5L-2.6 -1.5Z" fill="none" stroke="#1a2b34" stroke-width="2"></path></g><g transform="translate(525 162)"><path d="M0 -3L2.6 -1.5L2.6 1.5L0 3L-2.6 1.5L-2.6 -1.5Z" fill="none" stroke="#1a2b34" stroke-width="2"></path></g><g transform="translate(239 520)"><path d="M0 -10L8.7 -5L8.7 5L0 10L-8.7 5L-8.7 -5Z" fill="none" stroke="#1a2b34" stroke-width="2"></path></g><g transform="translate(934 10)"><path d="M0 -1L0.9 -0.5L0.9 0.5L0 1L-0.9 0.5L-0.9 -0.5Z" fill="none" stroke="#1a2b34" stroke-width="2"></path></g><g transform="translate(885 22)"><path d="M0 -8L6.9 -4L6.9 4L0 8L-6.9 4L-6.9 -4Z" fill="none" stroke="#1a2b34" stroke-width="2"></path></g><g transform="translate(235 374)"><path d="M0 -8L6.9 -4L6.9 4L0 8L-6.9 4L-6.9 -4Z" fill="none" stroke="#1a2b34" stroke-width="2"></path></g><g transform="translate(831 283)"><path d="M0 -1L0.9 -0.5L0.9 0.5L0 1L-0.9 0.5L-0.9 -0.5Z" fill="none" stroke="#1a2b34" stroke-width="2"></path></g><g transform="translate(95 210)"><path d="M0 -6L5.2 -3L5.2 3L0 6L-5.2 3L-5.2 -3Z" fill="none" stroke="#1a2b34" stroke-width="2"></path></g><g transform="translate(9 498)"><path d="M0 -11L9.5 -5.5L9.5 5.5L0 11L-9.5 5.5L-9.5 -5.5Z" fill="none" stroke="#1a2b34" stroke-width="2"></path></g><g transform="translate(712 305)"><path d="M0 -11L9.5 -5.5L9.5 5.5L0 11L-9.5 5.5L-9.5 -5.5Z" fill="none" stroke="#1a2b34" stroke-width="2"></path></g><g transform="translate(24 328)"><path d="M0 -1L0.9 -0.5L0.9 0.5L0 1L-0.9 0.5L-0.9 -0.5Z" fill="none" stroke="#1a2b34" stroke-width="2"></path></g><g transform="translate(266 414)"><path d="M0 -3L2.6 -1.5L2.6 1.5L0 3L-2.6 1.5L-2.6 -1.5Z" fill="none" stroke="#1a2b34" stroke-width="2"></path></g><g transform="translate(908 477)"><path d="M0 -5L4.3 -2.5L4.3 2.5L0 5L-4.3 2.5L-4.3 -2.5Z" fill="none" stroke="#1a2b34" stroke-width="2"></path></g><g transform="translate(687 107)"><path d="M0 -8L6.9 -4L6.9 4L0 8L-6.9 4L-6.9 -4Z" fill="none" stroke="#1a2b34" stroke-width="2"></path></g><g transform="translate(896 263)"><path d="M0 -7L6.1 -3.5L6.1 3.5L0 7L-6.1 3.5L-6.1 -3.5Z" fill="none" stroke="#1a2b34" stroke-width="2"></path></g><g transform="translate(32 420)"><path d="M0 -7L6.1 -3.5L6.1 3.5L0 7L-6.1 3.5L-6.1 -3.5Z" fill="none" stroke="#1a2b34" stroke-width="2"></path></g><g transform="translate(947 397)"><path d="M0 -7L6.1 -3.5L6.1 3.5L0 7L-6.1 3.5L-6.1 -3.5Z" fill="none" stroke="#1a2b34" stroke-width="2"></path></g><g transform="translate(151 161)"><path d="M0 -1L0.9 -0.5L0.9 0.5L0 1L-0.9 0.5L-0.9 -0.5Z" fill="none" stroke="#1a2b34" stroke-width="2"></path></g><g transform="translate(688 222)"><path d="M0 -3L2.6 -1.5L2.6 1.5L0 3L-2.6 1.5L-2.6 -1.5Z" fill="none" stroke="#1a2b34" stroke-width="2"></path></g><g transform="translate(428 129)"><path d="M0 -2L1.7 -1L1.7 1L0 2L-1.7 1L-1.7 -1Z" fill="none" stroke="#1a2b34" stroke-width="2"></path></g><g transform="translate(377 445)"><path d="M0 -8L6.9 -4L6.9 4L0 8L-6.9 4L-6.9 -4Z" fill="none" stroke="#1a2b34" stroke-width="2"></path></g><g transform="translate(135 501)"><path d="M0 -2L1.7 -1L1.7 1L0 2L-1.7 1L-1.7 -1Z" fill="none" stroke="#1a2b34" stroke-width="2"></path></g><g transform="translate(959 438)"><path d="M0 -3L2.6 -1.5L2.6 1.5L0 3L-2.6 1.5L-2.6 -1.5Z" fill="none" stroke="#1a2b34" stroke-width="2"></path></g><g transform="translate(324 104)"><path d="M0 -4L3.5 -2L3.5 2L0 4L-3.5 2L-3.5 -2Z" fill="none" stroke="#1a2b34" stroke-width="2"></path></g><g transform="translate(379 42)"><path d="M0 -11L9.5 -5.5L9.5 5.5L0 11L-9.5 5.5L-9.5 -5.5Z" fill="none" stroke="#1a2b34" stroke-width="2"></path></g><g transform="translate(418 263)"><path d="M0 -9L7.8 -4.5L7.8 4.5L0 9L-7.8 4.5L-7.8 -4.5Z" fill="none" stroke="#1a2b34" stroke-width="2"></path></g><g transform="translate(571 212)"><path d="M0 -11L9.5 -5.5L9.5 5.5L0 11L-9.5 5.5L-9.5 -5.5Z" fill="none" stroke="#1a2b34" stroke-width="2"></path></g><g transform="translate(813 202)"><path d="M0 -4L3.5 -2L3.5 2L0 4L-3.5 2L-3.5 -2Z" fill="none" stroke="#1a2b34" stroke-width="2"></path></g><g transform="translate(24 234)"><path d="M0 -4L3.5 -2L3.5 2L0 4L-3.5 2L-3.5 -2Z" fill="none" stroke="#1a2b34" stroke-width="2"></path></g><g transform="translate(552 461)"><path d="M0 -10L8.7 -5L8.7 5L0 10L-8.7 5L-8.7 -5Z" fill="none" stroke="#1a2b34" stroke-width="2"></path></g><g transform="translate(915 299)"><path d="M0 -6L5.2 -3L5.2 3L0 6L-5.2 3L-5.2 -3Z" fill="none" stroke="#1a2b34" stroke-width="2"></path></g><g transform="translate(769 213)"><path d="M0 -6L5.2 -3L5.2 3L0 6L-5.2 3L-5.2 -3Z" fill="none" stroke="#1a2b34" stroke-width="2"></path></g><g transform="translate(44 368)"><path d="M0 -8L6.9 -4L6.9 4L0 8L-6.9 4L-6.9 -4Z" fill="none" stroke="#1a2b34" stroke-width="2"></path></g><g transform="translate(81 123)"><path d="M0 -5L4.3 -2.5L4.3 2.5L0 5L-4.3 2.5L-4.3 -2.5Z" fill="none" stroke="#1a2b34" stroke-width="2"></path></g><g transform="translate(265 456)"><path d="M0 -8L6.9 -4L6.9 4L0 8L-6.9 4L-6.9 -4Z" fill="none" stroke="#1a2b34" stroke-width="2"></path></g><g transform="translate(909 401)"><path d="M0 -6L5.2 -3L5.2 3L0 6L-5.2 3L-5.2 -3Z" fill="none" stroke="#1a2b34" stroke-width="2"></path></g><g transform="translate(16 146)"><path d="M0 -10L8.7 -5L8.7 5L0 10L-8.7 5L-8.7 -5Z" fill="none" stroke="#1a2b34" stroke-width="2"></path></g><g transform="translate(118 117)"><path d="M0 -8L6.9 -4L6.9 4L0 8L-6.9 4L-6.9 -4Z" fill="none" stroke="#1a2b34" stroke-width="2"></path></g><g transform="translate(448 461)"><path d="M0 -3L2.6 -1.5L2.6 1.5L0 3L-2.6 1.5L-2.6 -1.5Z" fill="none" stroke="#1a2b34" stroke-width="2"></path></g><g transform="translate(91 302)"><path d="M0 -7L6.1 -3.5L6.1 3.5L0 7L-6.1 3.5L-6.1 -3.5Z" fill="none" stroke="#1a2b34" stroke-width="2"></path></g><g transform="translate(681 151)"><path d="M0 -5L4.3 -2.5L4.3 2.5L0 5L-4.3 2.5L-4.3 -2.5Z" fill="none" stroke="#1a2b34" stroke-width="2"></path></g><g transform="translate(565 487)"><path d="M0 -6L5.2 -3L5.2 3L0 6L-5.2 3L-5.2 -3Z" fill="none" stroke="#1a2b34" stroke-width="2"></path></g><g transform="translate(320 54)"><path d="M0 -11L9.5 -5.5L9.5 5.5L0 11L-9.5 5.5L-9.5 -5.5Z" fill="none" stroke="#1a2b34" stroke-width="2"></path></g><g transform="translate(840 422)"><path d="M0 -3L2.6 -1.5L2.6 1.5L0 3L-2.6 1.5L-2.6 -1.5Z" fill="none" stroke="#1a2b34" stroke-width="2"></path></g><g transform="translate(202 383)"><path d="M0 -4L3.5 -2L3.5 2L0 4L-3.5 2L-3.5 -2Z" fill="none" stroke="#1a2b34" stroke-width="2"></path></g><g transform="translate(236 343)"><path d="M0 -1L0.9 -0.5L0.9 0.5L0 1L-0.9 0.5L-0.9 -0.5Z" fill="none" stroke="#1a2b34" stroke-width="2"></path></g><g transform="translate(947 470)"><path d="M0 -7L6.1 -3.5L6.1 3.5L0 7L-6.1 3.5L-6.1 -3.5Z" fill="none" stroke="#1a2b34" stroke-width="2"></path></g><g transform="translate(907 8)"><path d="M0 -3L2.6 -1.5L2.6 1.5L0 3L-2.6 1.5L-2.6 -1.5Z" fill="none" stroke="#1a2b34" stroke-width="2"></path></g><g transform="translate(501 506)"><path d="M0 -1L0.9 -0.5L0.9 0.5L0 1L-0.9 0.5L-0.9 -0.5Z" fill="none" stroke="#1a2b34" stroke-width="2"></path></g><g transform="translate(14 371)"><path d="M0 -8L6.9 -4L6.9 4L0 8L-6.9 4L-6.9 -4Z" fill="none" stroke="#1a2b34" stroke-width="2"></path></g><g transform="translate(718 222)"><path d="M0 -1L0.9 -0.5L0.9 0.5L0 1L-0.9 0.5L-0.9 -0.5Z" fill="none" stroke="#1a2b34" stroke-width="2"></path></g><g transform="translate(158 453)"><path d="M0 -3L2.6 -1.5L2.6 1.5L0 3L-2.6 1.5L-2.6 -1.5Z" fill="none" stroke="#1a2b34" stroke-width="2"></path></g><g transform="translate(274 388)"><path d="M0 -7L6.1 -3.5L6.1 3.5L0 7L-6.1 3.5L-6.1 -3.5Z" fill="none" stroke="#1a2b34" stroke-width="2"></path></g><g transform="translate(297 339)"><path d="M0 -2L1.7 -1L1.7 1L0 2L-1.7 1L-1.7 -1Z" fill="none" stroke="#1a2b34" stroke-width="2"></path></g><g transform="translate(58 148)"><path d="M0 -7L6.1 -3.5L6.1 3.5L0 7L-6.1 3.5L-6.1 -3.5Z" fill="none" stroke="#1a2b34" stroke-width="2"></path></g><g transform="translate(536 7)"><path d="M0 -4L3.5 -2L3.5 2L0 4L-3.5 2L-3.5 -2Z" fill="none" stroke="#1a2b34" stroke-width="2"></path></g><g transform="translate(713 487)"><path d="M0 -11L9.5 -5.5L9.5 5.5L0 11L-9.5 5.5L-9.5 -5.5Z" fill="none" stroke="#1a2b34" stroke-width="2"></path></g><g transform="translate(611 231)"><path d="M0 -7L6.1 -3.5L6.1 3.5L0 7L-6.1 3.5L-6.1 -3.5Z" fill="none" stroke="#1a2b34" stroke-width="2"></path></g><g transform="translate(542 403)"><path d="M0 -8L6.9 -4L6.9 4L0 8L-6.9 4L-6.9 -4Z" fill="none" stroke="#1a2b34" stroke-width="2"></path></g><g transform="translate(499 208)"><path d="M0 -11L9.5 -5.5L9.5 5.5L0 11L-9.5 5.5L-9.5 -5.5Z" fill="none" stroke="#1a2b34" stroke-width="2"></path></g><g transform="translate(814 240)"><path d="M0 -7L6.1 -3.5L6.1 3.5L0 7L-6.1 3.5L-6.1 -3.5Z" fill="none" stroke="#1a2b34" stroke-width="2"></path></g><g transform="translate(400 384)"><path d="M0 -7L6.1 -3.5L6.1 3.5L0 7L-6.1 3.5L-6.1 -3.5Z" fill="none" stroke="#1a2b34" stroke-width="2"></path></g><g transform="translate(154 38)"><path d="M0 -9L7.8 -4.5L7.8 4.5L0 9L-7.8 4.5L-7.8 -4.5Z" fill="none" stroke="#1a2b34" stroke-width="2"></path></g><g transform="translate(271 81)"><path d="M0 -8L6.9 -4L6.9 4L0 8L-6.9 4L-6.9 -4Z" fill="none" stroke="#1a2b34" stroke-width="2"></path></g><g transform="translate(679 450)"><path d="M0 -2L1.7 -1L1.7 1L0 2L-1.7 1L-1.7 -1Z" fill="none" stroke="#1a2b34" stroke-width="2"></path></g><g transform="translate(878 126)"><path d="M0 -6L5.2 -3L5.2 3L0 6L-5.2 3L-5.2 -3Z" fill="none" stroke="#1a2b34" stroke-width="2"></path></g><g transform="translate(783 246)"><path d="M0 -10L8.7 -5L8.7 5L0 10L-8.7 5L-8.7 -5Z" fill="none" stroke="#1a2b34" stroke-width="2"></path></g><g transform="translate(505 6)"><path d="M0 -5L4.3 -2.5L4.3 2.5L0 5L-4.3 2.5L-4.3 -2.5Z" fill="none" stroke="#1a2b34" stroke-width="2"></path></g><g transform="translate(77 67)"><path d="M0 -9L7.8 -4.5L7.8 4.5L0 9L-7.8 4.5L-7.8 -4.5Z" fill="none" stroke="#1a2b34" stroke-width="2"></path></g><g transform="translate(602 80)"><path d="M0 -9L7.8 -4.5L7.8 4.5L0 9L-7.8 4.5L-7.8 -4.5Z" fill="none" stroke="#1a2b34" stroke-width="2"></path></g><g transform="translate(539 218)"><path d="M0 -5L4.3 -2.5L4.3 2.5L0 5L-4.3 2.5L-4.3 -2.5Z" fill="none" stroke="#1a2b34" stroke-width="2"></path></g><g transform="translate(843 32)"><path d="M0 -10L8.7 -5L8.7 5L0 10L-8.7 5L-8.7 -5Z" fill="none" stroke="#1a2b34" stroke-width="2"></path></g><g transform="translate(797 472)"><path d="M0 -5L4.3 -2.5L4.3 2.5L0 5L-4.3 2.5L-4.3 -2.5Z" fill="none" stroke="#1a2b34" stroke-width="2"></path></g><g transform="translate(695 366)"><path d="M0 -6L5.2 -3L5.2 3L0 6L-5.2 3L-5.2 -3Z" fill="none" stroke="#1a2b34" stroke-width="2"></path></g><g transform="translate(92 435)"><path d="M0 -5L4.3 -2.5L4.3 2.5L0 5L-4.3 2.5L-4.3 -2.5Z" fill="none" stroke="#1a2b34" stroke-width="2"></path></g><g transform="translate(811 442)"><path d="M0 -8L6.9 -4L6.9 4L0 8L-6.9 4L-6.9 -4Z" fill="none" stroke="#1a2b34" stroke-width="2"></path></g><g transform="translate(372 93)"><path d="M0 -6L5.2 -3L5.2 3L0 6L-5.2 3L-5.2 -3Z" fill="none" stroke="#1a2b34" stroke-width="2"></path></g><g transform="translate(930 61)"><path d="M0 -6L5.2 -3L5.2 3L0 6L-5.2 3L-5.2 -3Z" fill="none" stroke="#1a2b34" stroke-width="2"></path></g><g transform="translate(310 223)"><path d="M0 -11L9.5 -5.5L9.5 5.5L0 11L-9.5 5.5L-9.5 -5.5Z" fill="none" stroke="#1a2b34" stroke-width="2"></path></g><g transform="translate(565 69)"><path d="M0 -5L4.3 -2.5L4.3 2.5L0 5L-4.3 2.5L-4.3 -2.5Z" fill="none" stroke="#1a2b34" stroke-width="2"></path></g><g transform="translate(623 283)"><path d="M0 -4L3.5 -2L3.5 2L0 4L-3.5 2L-3.5 -2Z" fill="none" stroke="#1a2b34" stroke-width="2"></path></g><g transform="translate(706 334)"><path d="M0 -2L1.7 -1L1.7 1L0 2L-1.7 1L-1.7 -1Z" fill="none" stroke="#1a2b34" stroke-width="2"></path></g><g transform="translate(672 85)"><path d="M0 -2L1.7 -1L1.7 1L0 2L-1.7 1L-1.7 -1Z" fill="none" stroke="#1a2b34" stroke-width="2"></path></g><g transform="translate(593 111)"><path d="M0 -9L7.8 -4.5L7.8 4.5L0 9L-7.8 4.5L-7.8 -4.5Z" fill="none" stroke="#1a2b34" stroke-width="2"></path></g><g transform="translate(68 275)"><path d="M0 -10L8.7 -5L8.7 5L0 10L-8.7 5L-8.7 -5Z" fill="none" stroke="#1a2b34" stroke-width="2"></path></g><g transform="translate(470 13)"><path d="M0 -3L2.6 -1.5L2.6 1.5L0 3L-2.6 1.5L-2.6 -1.5Z" fill="none" stroke="#1a2b34" stroke-width="2"></path></g><g transform="translate(2 38)"><path d="M0 -1L0.9 -0.5L0.9 0.5L0 1L-0.9 0.5L-0.9 -0.5Z" fill="none" stroke="#1a2b34" stroke-width="2"></path></g><g transform="translate(593 4)"><path d="M0 -1L0.9 -0.5L0.9 0.5L0 1L-0.9 0.5L-0.9 -0.5Z" fill="none" stroke="#1a2b34" stroke-width="2"></path></g><g transform="translate(292 58)"><path d="M0 -10L8.7 -5L8.7 5L0 10L-8.7 5L-8.7 -5Z" fill="none" stroke="#1a2b34" stroke-width="2"></path></g><g transform="translate(224 124)"><path d="M0 -8L6.9 -4L6.9 4L0 8L-6.9 4L-6.9 -4Z" fill="none" stroke="#1a2b34" stroke-width="2"></path></g><g transform="translate(959 84)"><path d="M0 -6L5.2 -3L5.2 3L0 6L-5.2 3L-5.2 -3Z" fill="none" stroke="#1a2b34" stroke-width="2"></path></g><g transform="translate(839 4)"><path d="M0 -10L8.7 -5L8.7 5L0 10L-8.7 5L-8.7 -5Z" fill="none" stroke="#1a2b34" stroke-width="2"></path></g><g transform="translate(739 365)"><path d="M0 -4L3.5 -2L3.5 2L0 4L-3.5 2L-3.5 -2Z" fill="none" stroke="#1a2b34" stroke-width="2"></path></g><g transform="translate(106 8)"><path d="M0 -9L7.8 -4.5L7.8 4.5L0 9L-7.8 4.5L-7.8 -4.5Z" fill="none" stroke="#1a2b34" stroke-width="2"></path></g><g transform="translate(947 246)"><path d="M0 -10L8.7 -5L8.7 5L0 10L-8.7 5L-8.7 -5Z" fill="none" stroke="#1a2b34" stroke-width="2"></path></g><g transform="translate(748 256)"><path d="M0 -11L9.5 -5.5L9.5 5.5L0 11L-9.5 5.5L-9.5 -5.5Z" fill="none" stroke="#1a2b34" stroke-width="2"></path></g><g transform="translate(495 55)"><path d="M0 -8L6.9 -4L6.9 4L0 8L-6.9 4L-6.9 -4Z" fill="none" stroke="#1a2b34" stroke-width="2"></path></g><g transform="translate(428 221)"><path d="M0 -8L6.9 -4L6.9 4L0 8L-6.9 4L-6.9 -4Z" fill="none" stroke="#1a2b34" stroke-width="2"></path></g><g transform="translate(671 268)"><path d="M0 -5L4.3 -2.5L4.3 2.5L0 5L-4.3 2.5L-4.3 -2.5Z" fill="none" stroke="#1a2b34" stroke-width="2"></path></g><g transform="translate(295 305)"><path d="M0 -6L5.2 -3L5.2 3L0 6L-5.2 3L-5.2 -3Z" fill="none" stroke="#1a2b34" stroke-width="2"></path></g><g transform="translate(430 300)"><path d="M0 -10L8.7 -5L8.7 5L0 10L-8.7 5L-8.7 -5Z" fill="none" stroke="#1a2b34" stroke-width="2"></path></g><g transform="translate(619 533)"><path d="M0 -3L2.6 -1.5L2.6 1.5L0 3L-2.6 1.5L-2.6 -1.5Z" fill="none" stroke="#1a2b34" stroke-width="2"></path></g><g transform="translate(178 151)"><path d="M0 -5L4.3 -2.5L4.3 2.5L0 5L-4.3 2.5L-4.3 -2.5Z" fill="none" stroke="#1a2b34" stroke-width="2"></path></g><g transform="translate(790 134)"><path d="M0 -9L7.8 -4.5L7.8 4.5L0 9L-7.8 4.5L-7.8 -4.5Z" fill="none" stroke="#1a2b34" stroke-width="2"></path></g><g transform="translate(184 23)"><path d="M0 -8L6.9 -4L6.9 4L0 8L-6.9 4L-6.9 -4Z" fill="none" stroke="#1a2b34" stroke-width="2"></path></g><g transform="translate(388 122)"><path d="M0 -4L3.5 -2L3.5 2L0 4L-3.5 2L-3.5 -2Z" fill="none" stroke="#1a2b34" stroke-width="2"></path></g><g transform="translate(897 208)"><path d="M0 -9L7.8 -4.5L7.8 4.5L0 9L-7.8 4.5L-7.8 -4.5Z" fill="none" stroke="#1a2b34" stroke-width="2"></path></g><g transform="translate(321 301)"><path d="M0 -9L7.8 -4.5L7.8 4.5L0 9L-7.8 4.5L-7.8 -4.5Z" fill="none" stroke="#1a2b34" stroke-width="2"></path></g><g transform="translate(149 358)"><path d="M0 -5L4.3 -2.5L4.3 2.5L0 5L-4.3 2.5L-4.3 -2.5Z" fill="none" stroke="#1a2b34" stroke-width="2"></path></g><g transform="translate(881 173)"><path d="M0 -4L3.5 -2L3.5 2L0 4L-3.5 2L-3.5 -2Z" fill="none" stroke="#1a2b34" stroke-width="2"></path></g><g transform="translate(791 285)"><path d="M0 -8L6.9 -4L6.9 4L0 8L-6.9 4L-6.9 -4Z" fill="none" stroke="#1a2b34" stroke-width="2"></path></g><g transform="translate(220 444)"><path d="M0 -4L3.5 -2L3.5 2L0 4L-3.5 2L-3.5 -2Z" fill="none" stroke="#1a2b34" stroke-width="2"></path></g><g transform="translate(281 486)"><path d="M0 -1L0.9 -0.5L0.9 0.5L0 1L-0.9 0.5L-0.9 -0.5Z" fill="none" stroke="#1a2b34" stroke-width="2"></path></g><g transform="translate(819 366)"><path d="M0 -9L7.8 -4.5L7.8 4.5L0 9L-7.8 4.5L-7.8 -4.5Z" fill="none" stroke="#1a2b34" stroke-width="2"></path></g><g transform="translate(393 289)"><path d="M0 -4L3.5 -2L3.5 2L0 4L-3.5 2L-3.5 -2Z" fill="none" stroke="#1a2b34" stroke-width="2"></path></g><g transform="translate(361 69)"><path d="M0 -7L6.1 -3.5L6.1 3.5L0 7L-6.1 3.5L-6.1 -3.5Z" fill="none" stroke="#1a2b34" stroke-width="2"></path></g><g transform="translate(24 108)"><path d="M0 -9L7.8 -4.5L7.8 4.5L0 9L-7.8 4.5L-7.8 -4.5Z" fill="none" stroke="#1a2b34" stroke-width="2"></path></g><g transform="translate(729 419)"><path d="M0 -8L6.9 -4L6.9 4L0 8L-6.9 4L-6.9 -4Z" fill="none" stroke="#1a2b34" stroke-width="2"></path></g><g transform="translate(248 217)"><path d="M0 -9L7.8 -4.5L7.8 4.5L0 9L-7.8 4.5L-7.8 -4.5Z" fill="none" stroke="#1a2b34" stroke-width="2"></path></g><g transform="translate(915 372)"><path d="M0 -5L4.3 -2.5L4.3 2.5L0 5L-4.3 2.5L-4.3 -2.5Z" fill="none" stroke="#1a2b34" stroke-width="2"></path></g><g transform="translate(676 46)"><path d="M0 -5L4.3 -2.5L4.3 2.5L0 5L-4.3 2.5L-4.3 -2.5Z" fill="none" stroke="#1a2b34" stroke-width="2"></path></g><g transform="translate(417 440)"><path d="M0 -11L9.5 -5.5L9.5 5.5L0 11L-9.5 5.5L-9.5 -5.5Z" fill="none" stroke="#1a2b34" stroke-width="2"></path></g><g transform="translate(922 119)"><path d="M0 -6L5.2 -3L5.2 3L0 6L-5.2 3L-5.2 -3Z" fill="none" stroke="#1a2b34" stroke-width="2"></path></g><g transform="translate(6 200)"><path d="M0 -9L7.8 -4.5L7.8 4.5L0 9L-7.8 4.5L-7.8 -4.5Z" fill="none" stroke="#1a2b34" stroke-width="2"></path></g><g transform="translate(245 439)"><path d="M0 -5L4.3 -2.5L4.3 2.5L0 5L-4.3 2.5L-4.3 -2.5Z" fill="none" stroke="#1a2b34" stroke-width="2"></path></g><g transform="translate(368 361)"><path d="M0 -1L0.9 -0.5L0.9 0.5L0 1L-0.9 0.5L-0.9 -0.5Z" fill="none" stroke="#1a2b34" stroke-width="2"></path></g><g transform="translate(353 141)"><path d="M0 -2L1.7 -1L1.7 1L0 2L-1.7 1L-1.7 -1Z" fill="none" stroke="#1a2b34" stroke-width="2"></path></g><g transform="translate(267 362)"><path d="M0 -5L4.3 -2.5L4.3 2.5L0 5L-4.3 2.5L-4.3 -2.5Z" fill="none" stroke="#1a2b34" stroke-width="2"></path></g><g transform="translate(647 502)"><path d="M0 -10L8.7 -5L8.7 5L0 10L-8.7 5L-8.7 -5Z" fill="none" stroke="#1a2b34" stroke-width="2"></path></g><g transform="translate(117 530)"><path d="M0 -4L3.5 -2L3.5 2L0 4L-3.5 2L-3.5 -2Z" fill="none" stroke="#1a2b34" stroke-width="2"></path></g><g transform="translate(27 74)"><path d="M0 -3L2.6 -1.5L2.6 1.5L0 3L-2.6 1.5L-2.6 -1.5Z" fill="none" stroke="#1a2b34" stroke-width="2"></path></g><g transform="translate(543 42)"><path d="M0 -3L2.6 -1.5L2.6 1.5L0 3L-2.6 1.5L-2.6 -1.5Z" fill="none" stroke="#1a2b34" stroke-width="2"></path></g><g transform="translate(373 407)"><path d="M0 -6L5.2 -3L5.2 3L0 6L-5.2 3L-5.2 -3Z" fill="none" stroke="#1a2b34" stroke-width="2"></path></g><g transform="translate(677 294)"><path d="M0 -1L0.9 -0.5L0.9 0.5L0 1L-0.9 0.5L-0.9 -0.5Z" fill="none" stroke="#1a2b34" stroke-width="2"></path></g><g transform="translate(680 197)"><path d="M0 -9L7.8 -4.5L7.8 4.5L0 9L-7.8 4.5L-7.8 -4.5Z" fill="none" stroke="#1a2b34" stroke-width="2"></path></g><g transform="translate(407 411)"><path d="M0 -10L8.7 -5L8.7 5L0 10L-8.7 5L-8.7 -5Z" fill="none" stroke="#1a2b34" stroke-width="2"></path></g><g transform="translate(193 455)"><path d="M0 -3L2.6 -1.5L2.6 1.5L0 3L-2.6 1.5L-2.6 -1.5Z" fill="none" stroke="#1a2b34" stroke-width="2"></path></g><g transform="translate(153 129)"><path d="M0 -7L6.1 -3.5L6.1 3.5L0 7L-6.1 3.5L-6.1 -3.5Z" fill="none" stroke="#1a2b34" stroke-width="2"></path></g><g transform="translate(536 292)"><path d="M0 -10L8.7 -5L8.7 5L0 10L-8.7 5L-8.7 -5Z" fill="none" stroke="#1a2b34" stroke-width="2"></path></g><g transform="translate(768 510)"><path d="M0 -11L9.5 -5.5L9.5 5.5L0 11L-9.5 5.5L-9.5 -5.5Z" fill="none" stroke="#1a2b34" stroke-width="2"></path></g><g transform="translate(893 67)"><path d="M0 -8L6.9 -4L6.9 4L0 8L-6.9 4L-6.9 -4Z" fill="none" stroke="#1a2b34" stroke-width="2"></path></g><g transform="translate(87 395)"><path d="M0 -2L1.7 -1L1.7 1L0 2L-1.7 1L-1.7 -1Z" fill="none" stroke="#1a2b34" stroke-width="2"></path></g><g transform="translate(363 165)"><path d="M0 -7L6.1 -3.5L6.1 3.5L0 7L-6.1 3.5L-6.1 -3.5Z" fill="none" stroke="#1a2b34" stroke-width="2"></path></g><g transform="translate(414 102)"><path d="M0 -1L0.9 -0.5L0.9 0.5L0 1L-0.9 0.5L-0.9 -0.5Z" fill="none" stroke="#1a2b34" stroke-width="2"></path></g><g transform="translate(824 319)"><path d="M0 -3L2.6 -1.5L2.6 1.5L0 3L-2.6 1.5L-2.6 -1.5Z" fill="none" stroke="#1a2b34" stroke-width="2"></path></g><g transform="translate(493 355)"><path d="M0 -4L3.5 -2L3.5 2L0 4L-3.5 2L-3.5 -2Z" fill="none" stroke="#1a2b34" stroke-width="2"></path></g><g transform="translate(661 414)"><path d="M0 -11L9.5 -5.5L9.5 5.5L0 11L-9.5 5.5L-9.5 -5.5Z" fill="none" stroke="#1a2b34" stroke-width="2"></path></g><g transform="translate(109 38)"><path d="M0 -2L1.7 -1L1.7 1L0 2L-1.7 1L-1.7 -1Z" fill="none" stroke="#1a2b34" stroke-width="2"></path></g><g transform="translate(396 466)"><path d="M0 -8L6.9 -4L6.9 4L0 8L-6.9 4L-6.9 -4Z" fill="none" stroke="#1a2b34" stroke-width="2"></path></g><g transform="translate(471 310)"><path d="M0 -11L9.5 -5.5L9.5 5.5L0 11L-9.5 5.5L-9.5 -5.5Z" fill="none" stroke="#1a2b34" stroke-width="2"></path></g><g transform="translate(627 8)"><path d="M0 -11L9.5 -5.5L9.5 5.5L0 11L-9.5 5.5L-9.5 -5.5Z" fill="none" stroke="#1a2b34" stroke-width="2"></path></g><g transform="translate(562 243)"><path d="M0 -8L6.9 -4L6.9 4L0 8L-6.9 4L-6.9 -4Z" fill="none" stroke="#1a2b34" stroke-width="2"></path></g><g transform="translate(955 196)"><path d="M0 -4L3.5 -2L3.5 2L0 4L-3.5 2L-3.5 -2Z" fill="none" stroke="#1a2b34" stroke-width="2"></path></g><g transform="translate(393 494)"><path d="M0 -1L0.9 -0.5L0.9 0.5L0 1L-0.9 0.5L-0.9 -0.5Z" fill="none" stroke="#1a2b34" stroke-width="2"></path></g><g transform="translate(585 510)"><path d="M0 -6L5.2 -3L5.2 3L0 6L-5.2 3L-5.2 -3Z" fill="none" stroke="#1a2b34" stroke-width="2"></path></g><g transform="translate(849 235)"><path d="M0 -6L5.2 -3L5.2 3L0 6L-5.2 3L-5.2 -3Z" fill="none" stroke="#1a2b34" stroke-width="2"></path></g><g transform="translate(674 341)"><path d="M0 -11L9.5 -5.5L9.5 5.5L0 11L-9.5 5.5L-9.5 -5.5Z" fill="none" stroke="#1a2b34" stroke-width="2"></path></g><g transform="translate(676 4)"><path d="M0 -10L8.7 -5L8.7 5L0 10L-8.7 5L-8.7 -5Z" fill="none" stroke="#1a2b34" stroke-width="2"></path></g><g transform="translate(35 495)"><path d="M0 -1L0.9 -0.5L0.9 0.5L0 1L-0.9 0.5L-0.9 -0.5Z" fill="none" stroke="#1a2b34" stroke-width="2"></path></g><g transform="translate(732 333)"><path d="M0 -2L1.7 -1L1.7 1L0 2L-1.7 1L-1.7 -1Z" fill="none" stroke="#1a2b34" stroke-width="2"></path></g><g transform="translate(595 182)"><path d="M0 -10L8.7 -5L8.7 5L0 10L-8.7 5L-8.7 -5Z" fill="none" stroke="#1a2b34" stroke-width="2"></path></g><g transform="translate(662 237)"><path d="M0 -3L2.6 -1.5L2.6 1.5L0 3L-2.6 1.5L-2.6 -1.5Z" fill="none" stroke="#1a2b34" stroke-width="2"></path></g><g transform="translate(274 259)"><path d="M0 -3L2.6 -1.5L2.6 1.5L0 3L-2.6 1.5L-2.6 -1.5Z" fill="none" stroke="#1a2b34" stroke-width="2"></path></g><g transform="translate(829 170)"><path d="M0 -9L7.8 -4.5L7.8 4.5L0 9L-7.8 4.5L-7.8 -4.5Z" fill="none" stroke="#1a2b34" stroke-width="2"></path></g><g transform="translate(353 385)"><path d="M0 -1L0.9 -0.5L0.9 0.5L0 1L-0.9 0.5L-0.9 -0.5Z" fill="none" stroke="#1a2b34" stroke-width="2"></path></g><g transform="translate(691 502)"><path d="M0 -6L5.2 -3L5.2 3L0 6L-5.2 3L-5.2 -3Z" fill="none" stroke="#1a2b34" stroke-width="2"></path></g><g transform="translate(745 57)"><path d="M0 -9L7.8 -4.5L7.8 4.5L0 9L-7.8 4.5L-7.8 -4.5Z" fill="none" stroke="#1a2b34" stroke-width="2"></path></g><g transform="translate(544 520)"><path d="M0 -3L2.6 -1.5L2.6 1.5L0 3L-2.6 1.5L-2.6 -1.5Z" fill="none" stroke="#1a2b34" stroke-width="2"></path></g><g transform="translate(636 390)"><path d="M0 -7L6.1 -3.5L6.1 3.5L0 7L-6.1 3.5L-6.1 -3.5Z" fill="none" stroke="#1a2b34" stroke-width="2"></path></g><g transform="translate(59 1)"><path d="M0 -1L0.9 -0.5L0.9 0.5L0 1L-0.9 0.5L-0.9 -0.5Z" fill="none" stroke="#1a2b34" stroke-width="2"></path></g><g transform="translate(3 411)"><path d="M0 -11L9.5 -5.5L9.5 5.5L0 11L-9.5 5.5L-9.5 -5.5Z" fill="none" stroke="#1a2b34" stroke-width="2"></path></g><g transform="translate(894 234)"><path d="M0 -8L6.9 -4L6.9 4L0 8L-6.9 4L-6.9 -4Z" fill="none" stroke="#1a2b34" stroke-width="2"></path></g><g transform="translate(609 390)"><path d="M0 -1L0.9 -0.5L0.9 0.5L0 1L-0.9 0.5L-0.9 -0.5Z" fill="none" stroke="#1a2b34" stroke-width="2"></path></g><g transform="translate(852 377)"><path d="M0 -9L7.8 -4.5L7.8 4.5L0 9L-7.8 4.5L-7.8 -4.5Z" fill="none" stroke="#1a2b34" stroke-width="2"></path></g><g transform="translate(317 274)"><path d="M0 -11L9.5 -5.5L9.5 5.5L0 11L-9.5 5.5L-9.5 -5.5Z" fill="none" stroke="#1a2b34" stroke-width="2"></path></g><g transform="translate(230 417)"><path d="M0 -6L5.2 -3L5.2 3L0 6L-5.2 3L-5.2 -3Z" fill="none" stroke="#1a2b34" stroke-width="2"></path></g><g transform="translate(890 343)"><path d="M0 -2L1.7 -1L1.7 1L0 2L-1.7 1L-1.7 -1Z" fill="none" stroke="#1a2b34" stroke-width="2"></path></g><g transform="translate(124 220)"><path d="M0 -5L4.3 -2.5L4.3 2.5L0 5L-4.3 2.5L-4.3 -2.5Z" fill="none" stroke="#1a2b34" stroke-width="2"></path></g><g transform="translate(214 274)"><path d="M0 -4L3.5 -2L3.5 2L0 4L-3.5 2L-3.5 -2Z" fill="none" stroke="#1a2b34" stroke-width="2"></path></g><g transform="translate(241 73)"><path d="M0 -5L4.3 -2.5L4.3 2.5L0 5L-4.3 2.5L-4.3 -2.5Z" fill="none" stroke="#1a2b34" stroke-width="2"></path></g><g transform="translate(634 249)"><path d="M0 -7L6.1 -3.5L6.1 3.5L0 7L-6.1 3.5L-6.1 -3.5Z" fill="none" stroke="#1a2b34" stroke-width="2"></path></g><g transform="translate(176 185)"><path d="M0 -7L6.1 -3.5L6.1 3.5L0 7L-6.1 3.5L-6.1 -3.5Z" fill="none" stroke="#1a2b34" stroke-width="2"></path></g><g transform="translate(191 120)"><path d="M0 -8L6.9 -4L6.9 4L0 8L-6.9 4L-6.9 -4Z" fill="none" stroke="#1a2b34" stroke-width="2"></path></g><g transform="translate(784 534)"><path d="M0 -5L4.3 -2.5L4.3 2.5L0 5L-4.3 2.5L-4.3 -2.5Z" fill="none" stroke="#1a2b34" stroke-width="2"></path></g><g transform="translate(943 324)"><path d="M0 -11L9.5 -5.5L9.5 5.5L0 11L-9.5 5.5L-9.5 -5.5Z" fill="none" stroke="#1a2b34" stroke-width="2"></path></g><g transform="translate(160 259)"><path d="M0 -5L4.3 -2.5L4.3 2.5L0 5L-4.3 2.5L-4.3 -2.5Z" fill="none" stroke="#1a2b34" stroke-width="2"></path></g><g transform="translate(313 197)"><path d="M0 -11L9.5 -5.5L9.5 5.5L0 11L-9.5 5.5L-9.5 -5.5Z" fill="none" stroke="#1a2b34" stroke-width="2"></path></g><g transform="translate(733 17)"><path d="M0 -8L6.9 -4L6.9 4L0 8L-6.9 4L-6.9 -4Z" fill="none" stroke="#1a2b34" stroke-width="2"></path></g><g transform="translate(477 447)"><path d="M0 -9L7.8 -4.5L7.8 4.5L0 9L-7.8 4.5L-7.8 -4.5Z" fill="none" stroke="#1a2b34" stroke-width="2"></path></g><g transform="translate(99 90)"><path d="M0 -1L0.9 -0.5L0.9 0.5L0 1L-0.9 0.5L-0.9 -0.5Z" fill="none" stroke="#1a2b34" stroke-width="2"></path></g><g transform="translate(421 10)"><path d="M0 -11L9.5 -5.5L9.5 5.5L0 11L-9.5 5.5L-9.5 -5.5Z" fill="none" stroke="#1a2b34" stroke-width="2"></path></g><g transform="translate(434 532)"><path d="M0 -11L9.5 -5.5L9.5 5.5L0 11L-9.5 5.5L-9.5 -5.5Z" fill="none" stroke="#1a2b34" stroke-width="2"></path></g><g transform="translate(255 3)"><path d="M0 -1L0.9 -0.5L0.9 0.5L0 1L-0.9 0.5L-0.9 -0.5Z" fill="none" stroke="#1a2b34" stroke-width="2"></path></g><g transform="translate(328 538)"><path d="M0 -2L1.7 -1L1.7 1L0 2L-1.7 1L-1.7 -1Z" fill="none" stroke="#1a2b34" stroke-width="2"></path></g><g transform="translate(63 191)"><path d="M0 -5L4.3 -2.5L4.3 2.5L0 5L-4.3 2.5L-4.3 -2.5Z" fill="none" stroke="#1a2b34" stroke-width="2"></path></g><g transform="translate(922 441)"><path d="M0 -4L3.5 -2L3.5 2L0 4L-3.5 2L-3.5 -2Z" fill="none" stroke="#1a2b34" stroke-width="2"></path></g><g transform="translate(922 261)"><path d="M0 -6L5.2 -3L5.2 3L0 6L-5.2 3L-5.2 -3Z" fill="none" stroke="#1a2b34" stroke-width="2"></path></g><g transform="translate(467 403)"><path d="M0 -10L8.7 -5L8.7 5L0 10L-8.7 5L-8.7 -5Z" fill="none" stroke="#1a2b34" stroke-width="2"></path></g><g transform="translate(441 105)"><path d="M0 -2L1.7 -1L1.7 1L0 2L-1.7 1L-1.7 -1Z" fill="none" stroke="#1a2b34" stroke-width="2"></path></g><g transform="translate(199 73)"><path d="M0 -10L8.7 -5L8.7 5L0 10L-8.7 5L-8.7 -5Z" fill="none" stroke="#1a2b34" stroke-width="2"></path></g><g transform="translate(6 532)"><path d="M0 -3L2.6 -1.5L2.6 1.5L0 3L-2.6 1.5L-2.6 -1.5Z" fill="none" stroke="#1a2b34" stroke-width="2"></path></g><g transform="translate(127 247)"><path d="M0 -2L1.7 -1L1.7 1L0 2L-1.7 1L-1.7 -1Z" fill="none" stroke="#1a2b34" stroke-width="2"></path></g><g transform="translate(208 356)"><path d="M0 -2L1.7 -1L1.7 1L0 2L-1.7 1L-1.7 -1Z" fill="none" stroke="#1a2b34" stroke-width="2"></path></g><g transform="translate(239 160)"><path d="M0 -7L6.1 -3.5L6.1 3.5L0 7L-6.1 3.5L-6.1 -3.5Z" fill="none" stroke="#1a2b34" stroke-width="2"></path></g><g transform="translate(173 410)"><path d="M0 -4L3.5 -2L3.5 2L0 4L-3.5 2L-3.5 -2Z" fill="none" stroke="#1a2b34" stroke-width="2"></path></g><g transform="translate(892 438)"><path d="M0 -3L2.6 -1.5L2.6 1.5L0 3L-2.6 1.5L-2.6 -1.5Z" fill="none" stroke="#1a2b34" stroke-width="2"></path></g><g transform="translate(147 478)"><path d="M0 -2L1.7 -1L1.7 1L0 2L-1.7 1L-1.7 -1Z" fill="none" stroke="#1a2b34" stroke-width="2"></path></g><g transform="translate(765 147)"><path d="M0 -8L6.9 -4L6.9 4L0 8L-6.9 4L-6.9 -4Z" fill="none" stroke="#1a2b34" stroke-width="2"></path></g><g transform="translate(685 396)"><path d="M0 -8L6.9 -4L6.9 4L0 8L-6.9 4L-6.9 -4Z" fill="none" stroke="#1a2b34" stroke-width="2"></path></g><g transform="translate(239 317)"><path d="M0 -1L0.9 -0.5L0.9 0.5L0 1L-0.9 0.5L-0.9 -0.5Z" fill="none" stroke="#1a2b34" stroke-width="2"></path></g><g transform="translate(777 186)"><path d="M0 -3L2.6 -1.5L2.6 1.5L0 3L-2.6 1.5L-2.6 -1.5Z" fill="none" stroke="#1a2b34" stroke-width="2"></path></g><g transform="translate(297 400)"><path d="M0 -6L5.2 -3L5.2 3L0 6L-5.2 3L-5.2 -3Z" fill="none" stroke="#1a2b34" stroke-width="2"></path></g><g transform="translate(8 282)"><path d="M0 -1L0.9 -0.5L0.9 0.5L0 1L-0.9 0.5L-0.9 -0.5Z" fill="none" stroke="#1a2b34" stroke-width="2"></path></g><g transform="translate(7 459)"><path d="M0 -6L5.2 -3L5.2 3L0 6L-5.2 3L-5.2 -3Z" fill="none" stroke="#1a2b34" stroke-width="2"></path></g><g transform="translate(520 192)"><path d="M0 -4L3.5 -2L3.5 2L0 4L-3.5 2L-3.5 -2Z" fill="none" stroke="#1a2b34" stroke-width="2"></path></g><g transform="translate(508 124)"><path d="M0 -9L7.8 -4.5L7.8 4.5L0 9L-7.8 4.5L-7.8 -4.5Z" fill="none" stroke="#1a2b34" stroke-width="2"></path></g><g transform="translate(708 459)"><path d="M0 -4L3.5 -2L3.5 2L0 4L-3.5 2L-3.5 -2Z" fill="none" stroke="#1a2b34" stroke-width="2"></path></g><g transform="translate(457 141)"><path d="M0 -7L6.1 -3.5L6.1 3.5L0 7L-6.1 3.5L-6.1 -3.5Z" fill="none" stroke="#1a2b34" stroke-width="2"></path></g><g transform="translate(482 263)"><path d="M0 -5L4.3 -2.5L4.3 2.5L0 5L-4.3 2.5L-4.3 -2.5Z" fill="none" stroke="#1a2b34" stroke-width="2"></path></g><g transform="translate(3 1)"><path d="M0 -2L1.7 -1L1.7 1L0 2L-1.7 1L-1.7 -1Z" fill="none" stroke="#1a2b34" stroke-width="2"></path></g><g transform="translate(174 476)"><path d="M0 -6L5.2 -3L5.2 3L0 6L-5.2 3L-5.2 -3Z" fill="none" stroke="#1a2b34" stroke-width="2"></path></g><g transform="translate(891 515)"><path d="M0 -7L6.1 -3.5L6.1 3.5L0 7L-6.1 3.5L-6.1 -3.5Z" fill="none" stroke="#1a2b34" stroke-width="2"></path></g><g transform="translate(733 129)"><path d="M0 -6L5.2 -3L5.2 3L0 6L-5.2 3L-5.2 -3Z" fill="none" stroke="#1a2b34" stroke-width="2"></path></g><g transform="translate(566 535)"><path d="M0 -8L6.9 -4L6.9 4L0 8L-6.9 4L-6.9 -4Z" fill="none" stroke="#1a2b34" stroke-width="2"></path></g><g transform="translate(317 168)"><path d="M0 -7L6.1 -3.5L6.1 3.5L0 7L-6.1 3.5L-6.1 -3.5Z" fill="none" stroke="#1a2b34" stroke-width="2"></path></g><g transform="translate(317 430)"><path d="M0 -5L4.3 -2.5L4.3 2.5L0 5L-4.3 2.5L-4.3 -2.5Z" fill="none" stroke="#1a2b34" stroke-width="2"></path></g><g transform="translate(789 342)"><path d="M0 -9L7.8 -4.5L7.8 4.5L0 9L-7.8 4.5L-7.8 -4.5Z" fill="none" stroke="#1a2b34" stroke-width="2"></path></g><g transform="translate(120 420)"><path d="M0 -5L4.3 -2.5L4.3 2.5L0 5L-4.3 2.5L-4.3 -2.5Z" fill="none" stroke="#1a2b34" stroke-width="2"></path></g><g transform="translate(819 143)"><path d="M0 -11L9.5 -5.5L9.5 5.5L0 11L-9.5 5.5L-9.5 -5.5Z" fill="none" stroke="#1a2b34" stroke-width="2"></path></g><g transform="translate(580 139)"><path d="M0 -9L7.8 -4.5L7.8 4.5L0 9L-7.8 4.5L-7.8 -4.5Z" fill="none" stroke="#1a2b34" stroke-width="2"></path></g><g transform="translate(111 369)"><path d="M0 -4L3.5 -2L3.5 2L0 4L-3.5 2L-3.5 -2Z" fill="none" stroke="#1a2b34" stroke-width="2"></path></g><g transform="translate(229 236)"><path d="M0 -7L6.1 -3.5L6.1 3.5L0 7L-6.1 3.5L-6.1 -3.5Z" fill="none" stroke="#1a2b34" stroke-width="2"></path></g><g transform="translate(434 193)"><path d="M0 -11L9.5 -5.5L9.5 5.5L0 11L-9.5 5.5L-9.5 -5.5Z" fill="none" stroke="#1a2b34" stroke-width="2"></path></g><g transform="translate(909 41)"><path d="M0 -4L3.5 -2L3.5 2L0 4L-3.5 2L-3.5 -2Z" fill="none" stroke="#1a2b34" stroke-width="2"></path></g><g transform="translate(284 7)"><path d="M0 -11L9.5 -5.5L9.5 5.5L0 11L-9.5 5.5L-9.5 -5.5Z" fill="none" stroke="#1a2b34" stroke-width="2"></path></g><g transform="translate(113 178)"><path d="M0 -10L8.7 -5L8.7 5L0 10L-8.7 5L-8.7 -5Z" fill="none" stroke="#1a2b34" stroke-width="2"></path></g><g transform="translate(430 361)"><path d="M0 -8L6.9 -4L6.9 4L0 8L-6.9 4L-6.9 -4Z" fill="none" stroke="#1a2b34" stroke-width="2"></path></g><g transform="translate(611 495)"><path d="M0 -4L3.5 -2L3.5 2L0 4L-3.5 2L-3.5 -2Z" fill="none" stroke="#1a2b34" stroke-width="2"></path></g><g transform="translate(649 455)"><path d="M0 -8L6.9 -4L6.9 4L0 8L-6.9 4L-6.9 -4Z" fill="none" stroke="#1a2b34" stroke-width="2"></path></g><g transform="translate(516 34)"><path d="M0 -2L1.7 -1L1.7 1L0 2L-1.7 1L-1.7 -1Z" fill="none" stroke="#1a2b34" stroke-width="2"></path></g><g transform="translate(904 143)"><path d="M0 -9L7.8 -4.5L7.8 4.5L0 9L-7.8 4.5L-7.8 -4.5Z" fill="none" stroke="#1a2b34" stroke-width="2"></path></g><g transform="translate(437 399)"><path d="M0 -11L9.5 -5.5L9.5 5.5L0 11L-9.5 5.5L-9.5 -5.5Z" fill="none" stroke="#1a2b34" stroke-width="2"></path></g><g transform="translate(596 295)"><path d="M0 -5L4.3 -2.5L4.3 2.5L0 5L-4.3 2.5L-4.3 -2.5Z" fill="none" stroke="#1a2b34" stroke-width="2"></path></g><g transform="translate(340 84)"><path d="M0 -7L6.1 -3.5L6.1 3.5L0 7L-6.1 3.5L-6.1 -3.5Z" fill="none" stroke="#1a2b34" stroke-width="2"></path></g><g transform="translate(952 538)"><path d="M0 -7L6.1 -3.5L6.1 3.5L0 7L-6.1 3.5L-6.1 -3.5Z" fill="none" stroke="#1a2b34" stroke-width="2"></path></g><g transform="translate(516 537)"><path d="M0 -9L7.8 -4.5L7.8 4.5L0 9L-7.8 4.5L-7.8 -4.5Z" fill="none" stroke="#1a2b34" stroke-width="2"></path></g><g transform="translate(367 485)"><path d="M0 -1L0.9 -0.5L0.9 0.5L0 1L-0.9 0.5L-0.9 -0.5Z" fill="none" stroke="#1a2b34" stroke-width="2"></path></g><g transform="translate(859 108)"><path d="M0 -11L9.5 -5.5L9.5 5.5L0 11L-9.5 5.5L-9.5 -5.5Z" fill="none" stroke="#1a2b34" stroke-width="2"></path></g><g transform="translate(170 376)"><path d="M0 -9L7.8 -4.5L7.8 4.5L0 9L-7.8 4.5L-7.8 -4.5Z" fill="none" stroke="#1a2b34" stroke-width="2"></path></g><g transform="translate(483 147)"><path d="M0 -5L4.3 -2.5L4.3 2.5L0 5L-4.3 2.5L-4.3 -2.5Z" fill="none" stroke="#1a2b34" stroke-width="2"></path></g><g transform="translate(10 171)"><path d="M0 -1L0.9 -0.5L0.9 0.5L0 1L-0.9 0.5L-0.9 -0.5Z" fill="none" stroke="#1a2b34" stroke-width="2"></path></g><g transform="translate(201 330)"><path d="M0 -5L4.3 -2.5L4.3 2.5L0 5L-4.3 2.5L-4.3 -2.5Z" fill="none" stroke="#1a2b34" stroke-width="2"></path></g><g transform="translate(694 70)"><path d="M0 -3L2.6 -1.5L2.6 1.5L0 3L-2.6 1.5L-2.6 -1.5Z" fill="none" stroke="#1a2b34" stroke-width="2"></path></g><g transform="translate(879 491)"><path d="M0 -1L0.9 -0.5L0.9 0.5L0 1L-0.9 0.5L-0.9 -0.5Z" fill="none" stroke="#1a2b34" stroke-width="2"></path></g><g transform="translate(587 332)"><path d="M0 -1L0.9 -0.5L0.9 0.5L0 1L-0.9 0.5L-0.9 -0.5Z" fill="none" stroke="#1a2b34" stroke-width="2"></path></g><g transform="translate(660 380)"><path d="M0 -7L6.1 -3.5L6.1 3.5L0 7L-6.1 3.5L-6.1 -3.5Z" fill="none" stroke="#1a2b34" stroke-width="2"></path></g><g transform="translate(135 14)"><path d="M0 -5L4.3 -2.5L4.3 2.5L0 5L-4.3 2.5L-4.3 -2.5Z" fill="none" stroke="#1a2b34" stroke-width="2"></path></g><g transform="translate(287 168)"><path d="M0 -11L9.5 -5.5L9.5 5.5L0 11L-9.5 5.5L-9.5 -5.5Z" fill="none" stroke="#1a2b34" stroke-width="2"></path></g><g transform="translate(349 304)"><path d="M0 -10L8.7 -5L8.7 5L0 10L-8.7 5L-8.7 -5Z" fill="none" stroke="#1a2b34" stroke-width="2"></path></g><g transform="translate(533 248)"><path d="M0 -10L8.7 -5L8.7 5L0 10L-8.7 5L-8.7 -5Z" fill="none" stroke="#1a2b34" stroke-width="2"></path></g><g transform="translate(364 213)"><path d="M0 -9L7.8 -4.5L7.8 4.5L0 9L-7.8 4.5L-7.8 -4.5Z" fill="none" stroke="#1a2b34" stroke-width="2"></path></g><g transform="translate(761 331)"><path d="M0 -5L4.3 -2.5L4.3 2.5L0 5L-4.3 2.5L-4.3 -2.5Z" fill="none" stroke="#1a2b34" stroke-width="2"></path></g><g transform="translate(234 465)"><path d="M0 -9L7.8 -4.5L7.8 4.5L0 9L-7.8 4.5L-7.8 -4.5Z" fill="none" stroke="#1a2b34" stroke-width="2"></path></g><g transform="translate(941 36)"><path d="M0 -8L6.9 -4L6.9 4L0 8L-6.9 4L-6.9 -4Z" fill="none" stroke="#1a2b34" stroke-width="2"></path></g><g transform="translate(822 63)"><path d="M0 -3L2.6 -1.5L2.6 1.5L0 3L-2.6 1.5L-2.6 -1.5Z" fill="none" stroke="#1a2b34" stroke-width="2"></path></g><g transform="translate(648 25)"><path d="M0 -7L6.1 -3.5L6.1 3.5L0 7L-6.1 3.5L-6.1 -3.5Z" fill="none" stroke="#1a2b34" stroke-width="2"></path></g><g transform="translate(2 85)"><path d="M0 -10L8.7 -5L8.7 5L0 10L-8.7 5L-8.7 -5Z" fill="none" stroke="#1a2b34" stroke-width="2"></path></g><g transform="translate(346 247)"><path d="M0 -2L1.7 -1L1.7 1L0 2L-1.7 1L-1.7 -1Z" fill="none" stroke="#1a2b34" stroke-width="2"></path></g><g transform="translate(130 451)"><path d="M0 -7L6.1 -3.5L6.1 3.5L0 7L-6.1 3.5L-6.1 -3.5Z" fill="none" stroke="#1a2b34" stroke-width="2"></path></g><g transform="translate(571 37)"><path d="M0 -3L2.6 -1.5L2.6 1.5L0 3L-2.6 1.5L-2.6 -1.5Z" fill="none" stroke="#1a2b34" stroke-width="2"></path></g><g transform="translate(170 64)"><path d="M0 -7L6.1 -3.5L6.1 3.5L0 7L-6.1 3.5L-6.1 -3.5Z" fill="none" stroke="#1a2b34" stroke-width="2"></path></g><g transform="translate(103 269)"><path d="M0 -11L9.5 -5.5L9.5 5.5L0 11L-9.5 5.5L-9.5 -5.5Z" fill="none" stroke="#1a2b34" stroke-width="2"></path></g><g transform="translate(756 1)"><path d="M0 -6L5.2 -3L5.2 3L0 6L-5.2 3L-5.2 -3Z" fill="none" stroke="#1a2b34" stroke-width="2"></path></g><g transform="translate(143 317)"><path d="M0 -6L5.2 -3L5.2 3L0 6L-5.2 3L-5.2 -3Z" fill="none" stroke="#1a2b34" stroke-width="2"></path></g><g transform="translate(94 336)"><path d="M0 -10L8.7 -5L8.7 5L0 10L-8.7 5L-8.7 -5Z" fill="none" stroke="#1a2b34" stroke-width="2"></path></g><g transform="translate(215 538)"><path d="M0 -1L0.9 -0.5L0.9 0.5L0 1L-0.9 0.5L-0.9 -0.5Z" fill="none" stroke="#1a2b34" stroke-width="2"></path></g><g transform="translate(738 499)"><path d="M0 -3L2.6 -1.5L2.6 1.5L0 3L-2.6 1.5L-2.6 -1.5Z" fill="none" stroke="#1a2b34" stroke-width="2"></path></g><g transform="translate(109 65)"><path d="M0 -11L9.5 -5.5L9.5 5.5L0 11L-9.5 5.5L-9.5 -5.5Z" fill="none" stroke="#1a2b34" stroke-width="2"></path></g><g transform="translate(342 354)"><path d="M0 -8L6.9 -4L6.9 4L0 8L-6.9 4L-6.9 -4Z" fill="none" stroke="#1a2b34" stroke-width="2"></path></g><g transform="translate(636 167)"><path d="M0 -2L1.7 -1L1.7 1L0 2L-1.7 1L-1.7 -1Z" fill="none" stroke="#1a2b34" stroke-width="2"></path></g><g transform="translate(764 375)"><path d="M0 -2L1.7 -1L1.7 1L0 2L-1.7 1L-1.7 -1Z" fill="none" stroke="#1a2b34" stroke-width="2"></path></g><g transform="translate(160 285)"><path d="M0 -2L1.7 -1L1.7 1L0 2L-1.7 1L-1.7 -1Z" fill="none" stroke="#1a2b34" stroke-width="2"></path></g><g transform="translate(358 115)"><path d="M0 -8L6.9 -4L6.9 4L0 8L-6.9 4L-6.9 -4Z" fill="none" stroke="#1a2b34" stroke-width="2"></path></g><g transform="translate(8 256)"><path d="M0 -6L5.2 -3L5.2 3L0 6L-5.2 3L-5.2 -3Z" fill="none" stroke="#1a2b34" stroke-width="2"></path></g><g transform="translate(35 13)"><path d="M0 -1L0.9 -0.5L0.9 0.5L0 1L-0.9 0.5L-0.9 -0.5Z" fill="none" stroke="#1a2b34" stroke-width="2"></path></g><g transform="translate(49 56)"><path d="M0 -7L6.1 -3.5L6.1 3.5L0 7L-6.1 3.5L-6.1 -3.5Z" fill="none" stroke="#1a2b34" stroke-width="2"></path></g><g transform="translate(344 36)"><path d="M0 -11L9.5 -5.5L9.5 5.5L0 11L-9.5 5.5L-9.5 -5.5Z" fill="none" stroke="#1a2b34" stroke-width="2"></path></g><g transform="translate(142 104)"><path d="M0 -11L9.5 -5.5L9.5 5.5L0 11L-9.5 5.5L-9.5 -5.5Z" fill="none" stroke="#1a2b34" stroke-width="2"></path></g><g transform="translate(469 482)"><path d="M0 -3L2.6 -1.5L2.6 1.5L0 3L-2.6 1.5L-2.6 -1.5Z" fill="none" stroke="#1a2b34" stroke-width="2"></path></g><g transform="translate(257 500)"><path d="M0 -4L3.5 -2L3.5 2L0 4L-3.5 2L-3.5 -2Z" fill="none" stroke="#1a2b34" stroke-width="2"></path></g><g transform="translate(132 51)"><path d="M0 -2L1.7 -1L1.7 1L0 2L-1.7 1L-1.7 -1Z" fill="none" stroke="#1a2b34" stroke-width="2"></path></g><g transform="translate(356 538)"><path d="M0 -8L6.9 -4L6.9 4L0 8L-6.9 4L-6.9 -4Z" fill="none" stroke="#1a2b34" stroke-width="2"></path></g><g transform="translate(3 310)"><path d="M0 -8L6.9 -4L6.9 4L0 8L-6.9 4L-6.9 -4Z" fill="none" stroke="#1a2b34" stroke-width="2"></path></g><g transform="translate(46 398)"><path d="M0 -8L6.9 -4L6.9 4L0 8L-6.9 4L-6.9 -4Z" fill="none" stroke="#1a2b34" stroke-width="2"></path></g><g transform="translate(714 514)"><path d="M0 -1L0.9 -0.5L0.9 0.5L0 1L-0.9 0.5L-0.9 -0.5Z" fill="none" stroke="#1a2b34" stroke-width="2"></path></g><g transform="translate(319 249)"><path d="M0 -2L1.7 -1L1.7 1L0 2L-1.7 1L-1.7 -1Z" fill="none" stroke="#1a2b34" stroke-width="2"></path></g><g transform="translate(635 138)"><path d="M0 -7L6.1 -3.5L6.1 3.5L0 7L-6.1 3.5L-6.1 -3.5Z" fill="none" stroke="#1a2b34" stroke-width="2"></path></g><g transform="translate(545 317)"><path d="M0 -3L2.6 -1.5L2.6 1.5L0 3L-2.6 1.5L-2.6 -1.5Z" fill="none" stroke="#1a2b34" stroke-width="2"></path></g><g transform="translate(299 29)"><path d="M0 -6L5.2 -3L5.2 3L0 6L-5.2 3L-5.2 -3Z" fill="none" stroke="#1a2b34" stroke-width="2"></path></g><g transform="translate(456 245)"><path d="M0 -8L6.9 -4L6.9 4L0 8L-6.9 4L-6.9 -4Z" fill="none" stroke="#1a2b34" stroke-width="2"></path></g><g transform="translate(499 402)"><path d="M0 -6L5.2 -3L5.2 3L0 6L-5.2 3L-5.2 -3Z" fill="none" stroke="#1a2b34" stroke-width="2"></path></g><g transform="translate(448 32)"><path d="M0 -7L6.1 -3.5L6.1 3.5L0 7L-6.1 3.5L-6.1 -3.5Z" fill="none" stroke="#1a2b34" stroke-width="2"></path></g><g transform="translate(178 218)"><path d="M0 -6L5.2 -3L5.2 3L0 6L-5.2 3L-5.2 -3Z" fill="none" stroke="#1a2b34" stroke-width="2"></path></g><g transform="translate(702 128)"><path d="M0 -11L9.5 -5.5L9.5 5.5L0 11L-9.5 5.5L-9.5 -5.5Z" fill="none" stroke="#1a2b34" stroke-width="2"></path></g><g transform="translate(54 343)"><path d="M0 -4L3.5 -2L3.5 2L0 4L-3.5 2L-3.5 -2Z" fill="none" stroke="#1a2b34" stroke-width="2"></path></g><g transform="translate(116 395)"><path d="M0 -9L7.8 -4.5L7.8 4.5L0 9L-7.8 4.5L-7.8 -4.5Z" fill="none" stroke="#1a2b34" stroke-width="2"></path></g><g transform="translate(317 492)"><path d="M0 -6L5.2 -3L5.2 3L0 6L-5.2 3L-5.2 -3Z" fill="none" stroke="#1a2b34" stroke-width="2"></path></g><g transform="translate(293 367)"><path d="M0 -11L9.5 -5.5L9.5 5.5L0 11L-9.5 5.5L-9.5 -5.5Z" fill="none" stroke="#1a2b34" stroke-width="2"></path></g><g transform="translate(957 222)"><path d="M0 -11L9.5 -5.5L9.5 5.5L0 11L-9.5 5.5L-9.5 -5.5Z" fill="none" stroke="#1a2b34" stroke-width="2"></path></g><g transform="translate(35 209)"><path d="M0 -6L5.2 -3L5.2 3L0 6L-5.2 3L-5.2 -3Z" fill="none" stroke="#1a2b34" stroke-width="2"></path></g><g transform="translate(745 203)"><path d="M0 -3L2.6 -1.5L2.6 1.5L0 3L-2.6 1.5L-2.6 -1.5Z" fill="none" stroke="#1a2b34" stroke-width="2"></path></g><g transform="translate(412 177)"><path d="M0 -4L3.5 -2L3.5 2L0 4L-3.5 2L-3.5 -2Z" fill="none" stroke="#1a2b34" stroke-width="2"></path></g><g transform="translate(59 505)"><path d="M0 -3L2.6 -1.5L2.6 1.5L0 3L-2.6 1.5L-2.6 -1.5Z" fill="none" stroke="#1a2b34" stroke-width="2"></path></g><g transform="translate(849 305)"><path d="M0 -2L1.7 -1L1.7 1L0 2L-1.7 1L-1.7 -1Z" fill="none" stroke="#1a2b34" stroke-width="2"></path></g><g transform="translate(606 416)"><path d="M0 -4L3.5 -2L3.5 2L0 4L-3.5 2L-3.5 -2Z" fill="none" stroke="#1a2b34" stroke-width="2"></path></g><g transform="translate(509 78)"><path d="M0 -11L9.5 -5.5L9.5 5.5L0 11L-9.5 5.5L-9.5 -5.5Z" fill="none" stroke="#1a2b34" stroke-width="2"></path></g><g transform="translate(638 76)"><path d="M0 -8L6.9 -4L6.9 4L0 8L-6.9 4L-6.9 -4Z" fill="none" stroke="#1a2b34" stroke-width="2"></path></g><g transform="translate(882 394)"><path d="M0 -3L2.6 -1.5L2.6 1.5L0 3L-2.6 1.5L-2.6 -1.5Z" fill="none" stroke="#1a2b34" stroke-width="2"></path></g><g transform="translate(931 351)"><path d="M0 -5L4.3 -2.5L4.3 2.5L0 5L-4.3 2.5L-4.3 -2.5Z" fill="none" stroke="#1a2b34" stroke-width="2"></path></g><g transform="translate(463 538)"><path d="M0 -9L7.8 -4.5L7.8 4.5L0 9L-7.8 4.5L-7.8 -4.5Z" fill="none" stroke="#1a2b34" stroke-width="2"></path></g><g transform="translate(407 318)"><path d="M0 -9L7.8 -4.5L7.8 4.5L0 9L-7.8 4.5L-7.8 -4.5Z" fill="none" stroke="#1a2b34" stroke-width="2"></path></g><g transform="translate(416 507)"><path d="M0 -4L3.5 -2L3.5 2L0 4L-3.5 2L-3.5 -2Z" fill="none" stroke="#1a2b34" stroke-width="2"></path></g><g transform="translate(495 181)"><path d="M0 -10L8.7 -5L8.7 5L0 10L-8.7 5L-8.7 -5Z" fill="none" stroke="#1a2b34" stroke-width="2"></path></g><g transform="translate(243 260)"><path d="M0 -9L7.8 -4.5L7.8 4.5L0 9L-7.8 4.5L-7.8 -4.5Z" fill="none" stroke="#1a2b34" stroke-width="2"></path></g><g transform="translate(870 220)"><path d="M0 -2L1.7 -1L1.7 1L0 2L-1.7 1L-1.7 -1Z" fill="none" stroke="#1a2b34" stroke-width="2"></path></g><g transform="translate(620 189)"><path d="M0 -4L3.5 -2L3.5 2L0 4L-3.5 2L-3.5 -2Z" fill="none" stroke="#1a2b34" stroke-width="2"></path></g><g transform="translate(762 430)"><path d="M0 -7L6.1 -3.5L6.1 3.5L0 7L-6.1 3.5L-6.1 -3.5Z" fill="none" stroke="#1a2b34" stroke-width="2"></path></g><g transform="translate(4 346)"><path d="M0 -9L7.8 -4.5L7.8 4.5L0 9L-7.8 4.5L-7.8 -4.5Z" fill="none" stroke="#1a2b34" stroke-width="2"></path></g><g transform="translate(291 458)"><path d="M0 -3L2.6 -1.5L2.6 1.5L0 3L-2.6 1.5L-2.6 -1.5Z" fill="none" stroke="#1a2b34" stroke-width="2"></path></g><g transform="translate(817 23)"><path d="M0 -8L6.9 -4L6.9 4L0 8L-6.9 4L-6.9 -4Z" fill="none" stroke="#1a2b34" stroke-width="2"></path></g><g transform="translate(958 270)"><path d="M0 -2L1.7 -1L1.7 1L0 2L-1.7 1L-1.7 -1Z" fill="none" stroke="#1a2b34" stroke-width="2"></path></g><g transform="translate(38 131)"><path d="M0 -10L8.7 -5L8.7 5L0 10L-8.7 5L-8.7 -5Z" fill="none" stroke="#1a2b34" stroke-width="2"></path></g><g transform="translate(493 325)"><path d="M0 -7L6.1 -3.5L6.1 3.5L0 7L-6.1 3.5L-6.1 -3.5Z" stroke="#1a2b34" fill="none" stroke-width="2"></path></g><g transform="translate(957 57)"><path d="M0 -9L7.8 -4.5L7.8 4.5L0 9L-7.8 4.5L-7.8 -4.5Z" stroke="#1a2b34" fill="none" stroke-width="2"></path></g><g transform="translate(484 379)"><path d="M0 -7L6.1 -3.5L6.1 3.5L0 7L-6.1 3.5L-6.1 -3.5Z" stroke="#1a2b34" fill="none" stroke-width="2"></path></g><g transform="translate(512 233)"><path d="M0 -7L6.1 -3.5L6.1 3.5L0 7L-6.1 3.5L-6.1 -3.5Z" stroke="#1a2b34" fill="none" stroke-width="2"></path></g></g></svg>